<svg xmlns="http://www.w3.org/2000/svg" version="1.1" xmlns:xlink="http://www.w3.org/1999/xlink" xmlns:svgjs="http://svgjs.dev/svgjs" viewBox="0 0 13.973096291811753 9.862074228901154"><g transform="matrix(1,0,0,1,0.9752772718824403,7.7857969570187135)"><rect width="13.973096291811753" height="13.973096291811753" x="-0.9752772718824403" y="-9.841307988474012" fill="#ffffff"></rect><g><path d=" M 0.6075 0.030000000000000027 Q 0.7845 0.030000000000000027 0.9135 0.09375 Q 1.0425 0.15750000000000008 1.11225 0.2752500000000001 Q 1.182 0.393 1.182 0.555 Q 1.182 0.7170000000000001 1.11225 0.8347500000000001 Q 1.0425 0.9525000000000001 0.9135 1.01625 Q 0.7845 1.08 0.6075 1.08 L 0.2505 1.08 L 0.249 1.0170000000000001 Q 0.2925 1.0170000000000001 0.33975 1.0170000000000001 Q 0.387 1.0170000000000001 0.43125 1.0170000000000001 Q 0.47550000000000003 1.0170000000000001 0.5115000000000001 1.0170000000000001 Q 0.5475 1.0170000000000001 0.5685 1.0170000000000001 Q 0.5895 1.0170000000000001 0.5895 1.0170000000000001 Q 0.6975 1.0170000000000001 0.7755 0.9607500000000001 Q 0.8535 0.9045000000000001 0.8955000000000001 0.801 Q 0.9375 0.6975 0.9375 0.555 Q 0.9375 0.4125000000000001 0.8955000000000001 0.30900000000000005 Q 0.8535 0.20550000000000002 0.7755 0.1492500000000001 Q 0.6975 0.09300000000000008 0.5895 0.09300000000000008 Q 0.5895 0.09300000000000008 0.56775 0.09300000000000008 Q 0.546 0.09300000000000008 0.5085000000000001 0.09300000000000008 Q 0.47100000000000003 0.09300000000000008 0.4245 0.09300000000000008 Q 0.378 0.09300000000000008 0.3285 0.09300000000000008 Q 0.279 0.09300000000000008 0.234 0.09300000000000008 L 0.234 0.030000000000000027 L 0.6075 0.030000000000000027 M 0.4035 0.030000000000000027 L 0.4035 1.08 L 0.1785 1.08 L 0.1785 0.030000000000000027 L 0.4035 0.030000000000000027 M 0.183 0.9705 L 0.183 1.08 L 0.063 1.08 L 0.063 1.0650000000000002 Q 0.063 1.0650000000000002 0.07275 1.0650000000000002 Q 0.0825 1.0650000000000002 0.0825 1.0650000000000002 Q 0.1215 1.0650000000000002 0.14925 1.03725 Q 0.177 1.0095 0.1785 0.9705 L 0.183 0.9705 M 0.183 0.13950000000000007 L 0.1785 0.13950000000000007 Q 0.1785 0.10050000000000003 0.15 0.07275000000000009 Q 0.1215 0.04500000000000015 0.0825 0.04500000000000015 Q 0.0825 0.04500000000000015 0.0735 0.04500000000000015 Q 0.0645 0.04500000000000015 0.0645 0.04500000000000015 L 0.063 0.030000000000000027 L 0.183 0.030000000000000027 L 0.183 0.13950000000000007 M 1.61847509765625 0.030000000000000027 L 1.61847509765625 1.08 L 1.3934750976562502 1.08 L 1.3934750976562502 0.030000000000000027 L 1.61847509765625 0.030000000000000027 M 2.01447509765625 1.0155 L 2.0504750976562502 1.08 L 1.6139750976562501 1.08 L 1.6139750976562501 1.0155 L 2.01447509765625 1.0155 M 1.95897509765625 0.531 L 1.95897509765625 0.5940000000000001 L 1.6139750976562501 0.5940000000000001 L 1.6139750976562501 0.531 L 1.95897509765625 0.531 M 2.03247509765625 0.030000000000000027 L 2.03247509765625 0.09450000000000003 L 1.6139750976562501 0.09450000000000003 L 1.6139750976562501 0.030000000000000027 L 2.03247509765625 0.030000000000000027 M 2.12397509765625 0.774 L 2.05497509765625 1.08 L 1.7609750976562502 1.08 L 1.8149750976562502 1.0155 Q 1.8899750976562502 1.0155 1.94697509765625 0.9862500000000001 Q 2.0039750976562503 0.9570000000000001 2.04447509765625 0.9022500000000001 Q 2.08497509765625 0.8475 2.1089750976562502 0.774 L 2.12397509765625 0.774 M 1.95897509765625 0.5910000000000001 L 1.95897509765625 0.7350000000000001 L 1.9439750976562502 0.7350000000000001 L 1.9439750976562502 0.7215 Q 1.9439750976562502 0.6675 1.9079750976562502 0.6315000000000001 Q 1.8719750976562501 0.5955000000000001 1.8164750976562503 0.5940000000000001 L 1.8164750976562503 0.5910000000000001 L 1.95897509765625 0.5910000000000001 M 1.95897509765625 0.39 L 1.95897509765625 0.534 L 1.8164750976562503 0.534 L 1.8164750976562503 0.531 Q 1.8719750976562501 0.5295000000000001 1.9079750976562502 0.49275 Q 1.9439750976562502 0.45600000000000007 1.9439750976562502 0.402 L 1.9439750976562502 0.39 L 1.95897509765625 0.39 M 2.03247509765625 0.09000000000000008 L 2.03247509765625 0.26550000000000007 L 2.0174750976562503 0.26550000000000007 L 2.0174750976562503 0.24750000000000005 Q 2.0174750976562503 0.1785000000000001 1.97622509765625 0.13650000000000007 Q 1.93497509765625 0.09450000000000003 1.86447509765625 0.09300000000000008 L 1.86447509765625 0.09000000000000008 L 2.03247509765625 0.09000000000000008 M 2.03247509765625 0.0030000000000001137 L 2.03247509765625 0.046499999999999986 L 1.8494750976562502 0.030000000000000027 Q 1.88247509765625 0.030000000000000027 1.9192250976562502 0.025500000000000078 Q 1.9559750976562502 0.02100000000000013 1.98747509765625 0.015000000000000124 Q 2.0189750976562504 0.009000000000000119 2.03247509765625 0.0030000000000001137 M 1.3979750976562502 0.9705 L 1.3979750976562502 1.08 L 1.27797509765625 1.08 L 1.27797509765625 1.0650000000000002 Q 1.27797509765625 1.0650000000000002 1.2877250976562502 1.0650000000000002 Q 1.2974750976562501 1.0650000000000002 1.2974750976562501 1.0650000000000002 Q 1.33647509765625 1.0650000000000002 1.36422509765625 1.03725 Q 1.3919750976562502 1.0095 1.3934750976562502 0.9705 L 1.3979750976562502 0.9705 M 1.3979750976562502 0.13950000000000007 L 1.3934750976562502 0.13950000000000007 Q 1.3919750976562502 0.10050000000000003 1.36422509765625 0.07275000000000009 Q 1.33647509765625 0.04500000000000015 1.2974750976562501 0.04500000000000015 Q 1.2974750976562501 0.04500000000000015 1.2877250976562502 0.04500000000000015 Q 1.27797509765625 0.04500000000000015 1.27797509765625 0.04500000000000015 L 1.27797509765625 0.030000000000000027 L 1.3979750976562502 0.030000000000000027 L 1.3979750976562502 0.13950000000000007 M 2.7795036621093754 0.034499999999999975 L 2.7795036621093754 1.08 L 2.5545036621093753 1.08 L 2.5545036621093753 0.034499999999999975 L 2.7795036621093754 0.034499999999999975 M 3.147003662109375 0.02849999999999997 L 3.147003662109375 0.09150000000000003 L 2.187003662109375 0.09150000000000003 L 2.187003662109375 0.02849999999999997 L 3.147003662109375 0.02849999999999997 M 3.147003662109375 0.08700000000000008 L 3.147003662109375 0.264 L 3.1320036621093754 0.26250000000000007 L 3.1320036621093754 0.2460000000000001 Q 3.1320036621093754 0.1755000000000001 3.090753662109375 0.1342500000000001 Q 3.0495036621093754 0.09300000000000008 2.9790036621093754 0.09150000000000003 L 2.9790036621093754 0.08700000000000008 L 3.147003662109375 0.08700000000000008 M 3.147003662109375 0.0015000000000000568 L 3.147003662109375 0.04500000000000015 L 2.9640036621093753 0.02849999999999997 Q 2.997003662109375 0.02849999999999997 3.0337536621093752 0.02400000000000002 Q 3.0705036621093753 0.019500000000000073 3.102003662109375 0.013500000000000068 Q 3.1335036621093755 0.007500000000000062 3.147003662109375 0.0015000000000000568 M 2.559003662109375 0.9705 L 2.559003662109375 1.08 L 2.4390036621093754 1.08 L 2.4390036621093754 1.0650000000000002 Q 2.4390036621093754 1.0650000000000002 2.4487536621093753 1.0650000000000002 Q 2.458503662109375 1.0650000000000002 2.458503662109375 1.0650000000000002 Q 2.4975036621093754 1.0650000000000002 2.525253662109375 1.03725 Q 2.5530036621093752 1.0095 2.5545036621093753 0.9705 L 2.559003662109375 0.9705 M 2.775003662109375 0.9705 L 2.7795036621093754 0.9705 Q 2.7810036621093754 1.0095 2.808753662109375 1.03725 Q 2.8365036621093753 1.0650000000000002 2.8755036621093755 1.0650000000000002 Q 2.8755036621093755 1.0650000000000002 2.8852536621093754 1.0650000000000002 Q 2.8950036621093753 1.0650000000000002 2.8950036621093753 1.0650000000000002 L 2.8950036621093753 1.08 L 2.775003662109375 1.08 L 2.775003662109375 0.9705 M 2.3535036621093752 0.08700000000000008 L 2.3535036621093752 0.09150000000000003 Q 2.2845036621093753 0.09300000000000008 2.243253662109375 0.1342500000000001 Q 2.2020036621093753 0.1755000000000001 2.2020036621093753 0.2460000000000001 L 2.2020036621093753 0.26250000000000007 L 2.187003662109375 0.264 L 2.187003662109375 0.08700000000000008 L 2.3535036621093752 0.08700000000000008 M 2.187003662109375 0.0015000000000000568 Q 2.2020036621093753 0.007500000000000062 2.232753662109375 0.013500000000000068 Q 2.2635036621093754 0.019500000000000073 2.301003662109375 0.02400000000000002 Q 2.338503662109375 0.02849999999999997 2.3700036621093754 0.02849999999999997 L 2.187003662109375 0.04500000000000015 L 2.187003662109375 0.0015000000000000568 M 3.5684729003906255 0 L 4.057472900390625 1.0710000000000002 L 3.7889729003906254 1.0710000000000002 L 3.476972900390625 0.2895000000000001 L 3.5684729003906255 0 M 3.2459729003906252 0.9705 Q 3.2339729003906252 1.0005000000000002 3.2414729003906255 1.0215 Q 3.2489729003906254 1.0425 3.266972900390625 1.05375 Q 3.2849729003906254 1.0650000000000002 3.302972900390625 1.0650000000000002 L 3.3164729003906253 1.0650000000000002 L 3.3164729003906253 1.08 L 2.9954729003906255 1.08 L 2.9954729003906255 1.0650000000000002 Q 2.9954729003906255 1.0650000000000002 3.0022229003906253 1.0650000000000002 Q 3.008972900390625 1.0650000000000002 3.008972900390625 1.0650000000000002 Q 3.043472900390625 1.0650000000000002 3.080222900390625 1.04325 Q 3.1169729003906252 1.0215 3.1409729003906253 0.9705 L 3.2459729003906252 0.9705 M 3.5684729003906255 0 L 3.5744729003906253 0.18300000000000005 L 3.2024729003906254 1.0755000000000001 L 3.0929729003906252 1.0755000000000001 L 3.4814729003906253 0.1965 Q 3.4859729003906255 0.1875 3.4972229003906254 0.16275000000000006 Q 3.5084729003906254 0.138 3.5212229003906255 0.10650000000000004 Q 3.5339729003906255 0.07499999999999996 3.5444729003906255 0.04574999999999996 Q 3.5549729003906254 0.01649999999999996 3.5549729003906254 0 L 3.5684729003906255 0 M 3.7259729003906252 0.7230000000000001 L 3.7259729003906252 0.786 L 3.2849729003906254 0.786 L 3.2849729003906254 0.7230000000000001 L 3.7259729003906252 0.7230000000000001 M 3.748472900390625 0.9705 L 4.010972900390625 0.9705 Q 4.036472900390625 1.0215 4.0724729003906255 1.04325 Q 4.108472900390625 1.0650000000000002 4.1429729003906255 1.0650000000000002 Q 4.1429729003906255 1.0650000000000002 4.148972900390625 1.0650000000000002 Q 4.154972900390625 1.0650000000000002 4.154972900390625 1.0650000000000002 L 4.154972900390625 1.08 L 3.677972900390625 1.08 L 3.677972900390625 1.0650000000000002 L 3.6914729003906253 1.0650000000000002 Q 3.7214729003906255 1.0650000000000002 3.7439729003906255 1.0402500000000001 Q 3.7664729003906254 1.0155 3.748472900390625 0.9705 M 4.519442871093751 0.030000000000000027 L 4.519442871093751 1.08 L 4.29444287109375 1.08 L 4.29444287109375 0.030000000000000027 L 4.519442871093751 0.030000000000000027 M 4.29894287109375 0.9705 L 4.29894287109375 1.08 L 4.17894287109375 1.08 L 4.17894287109375 1.0650000000000002 Q 4.17894287109375 1.0650000000000002 4.1886928710937505 1.0650000000000002 Q 4.19844287109375 1.0650000000000002 4.19844287109375 1.0650000000000002 Q 4.237442871093751 1.0650000000000002 4.265192871093751 1.03725 Q 4.29294287109375 1.0095 4.29444287109375 0.9705 L 4.29894287109375 0.9705 M 4.29894287109375 0.13950000000000007 L 4.29444287109375 0.13950000000000007 Q 4.29294287109375 0.10050000000000003 4.265192871093751 0.07275000000000009 Q 4.237442871093751 0.04500000000000015 4.19844287109375 0.04500000000000015 Q 4.19844287109375 0.04500000000000015 4.1886928710937505 0.04500000000000015 Q 4.17894287109375 0.04500000000000015 4.17894287109375 0.04500000000000015 L 4.17894287109375 0.030000000000000027 L 4.29894287109375 0.030000000000000027 L 4.29894287109375 0.13950000000000007 M 4.5149428710937505 0.9705 L 4.519442871093751 0.9705 Q 4.520942871093751 1.0095 4.548692871093751 1.03725 Q 4.57644287109375 1.0650000000000002 4.615442871093751 1.0650000000000002 Q 4.615442871093751 1.0650000000000002 4.62444287109375 1.0650000000000002 Q 4.6334428710937505 1.0650000000000002 4.634942871093751 1.0650000000000002 L 4.634942871093751 1.08 L 4.5149428710937505 1.08 L 4.5149428710937505 0.9705 M 4.5149428710937505 0.13950000000000007 L 4.5149428710937505 0.030000000000000027 L 4.634942871093751 0.030000000000000027 L 4.634942871093751 0.04500000000000015 Q 4.6334428710937505 0.04500000000000015 4.62444287109375 0.04500000000000015 Q 4.615442871093751 0.04500000000000015 4.615442871093751 0.04500000000000015 Q 4.57644287109375 0.04500000000000015 4.548692871093751 0.07275000000000009 Q 4.520942871093751 0.10050000000000003 4.519442871093751 0.13950000000000007 L 4.5149428710937505 0.13950000000000007 M 5.102978759765626 0.030000000000000027 L 5.102978759765626 1.08 L 4.877978759765625 1.08 L 4.877978759765625 0.030000000000000027 L 5.102978759765626 0.030000000000000027 M 5.498978759765626 1.0155 L 5.534978759765625 1.08 L 5.098478759765626 1.08 L 5.098478759765626 1.0155 L 5.498978759765626 1.0155 M 5.608478759765625 0.774 L 5.539478759765625 1.08 L 5.245478759765626 1.08 L 5.299478759765625 1.0155 Q 5.374478759765625 1.0155 5.431478759765626 0.9862500000000001 Q 5.488478759765625 0.9570000000000001 5.528978759765626 0.9022500000000001 Q 5.569478759765626 0.8475 5.593478759765626 0.774 L 5.608478759765625 0.774 M 4.882478759765625 0.9705 L 4.882478759765625 1.08 L 4.762478759765625 1.08 L 4.762478759765625 1.0650000000000002 Q 4.762478759765625 1.0650000000000002 4.772228759765626 1.0650000000000002 Q 4.781978759765625 1.0650000000000002 4.781978759765625 1.0650000000000002 Q 4.820978759765626 1.0650000000000002 4.848728759765626 1.03725 Q 4.876478759765625 1.0095 4.877978759765625 0.9705 L 4.882478759765625 0.9705 M 4.882478759765625 0.13950000000000007 L 4.877978759765625 0.13950000000000007 Q 4.876478759765625 0.10050000000000003 4.848728759765626 0.07275000000000009 Q 4.820978759765626 0.04500000000000015 4.781978759765625 0.04500000000000015 Q 4.781978759765625 0.04500000000000015 4.772228759765626 0.04500000000000015 Q 4.762478759765625 0.04500000000000015 4.762478759765625 0.04500000000000015 L 4.762478759765625 0.030000000000000027 L 4.882478759765625 0.030000000000000027 L 4.882478759765625 0.13950000000000007 M 5.098478759765626 0.13950000000000007 L 5.098478759765626 0.030000000000000027 L 5.218478759765626 0.030000000000000027 L 5.218478759765626 0.04500000000000015 Q 5.216978759765626 0.04500000000000015 5.207978759765625 0.04500000000000015 Q 5.198978759765626 0.04500000000000015 5.198978759765626 0.04500000000000015 Q 5.159978759765625 0.04500000000000015 5.132228759765626 0.07275000000000009 Q 5.104478759765626 0.10050000000000003 5.102978759765626 0.13950000000000007 L 5.098478759765626 0.13950000000000007 M 6.613485351562501 0.030000000000000027 Q 6.7904853515625 0.030000000000000027 6.919485351562501 0.09375 Q 7.048485351562501 0.15750000000000008 7.1182353515625 0.2752500000000001 Q 7.187985351562501 0.393 7.187985351562501 0.555 Q 7.187985351562501 0.7170000000000001 7.1182353515625 0.8347500000000001 Q 7.048485351562501 0.9525000000000001 6.919485351562501 1.01625 Q 6.7904853515625 1.08 6.613485351562501 1.08 L 6.2564853515625005 1.08 L 6.2549853515625005 1.0170000000000001 Q 6.298485351562501 1.0170000000000001 6.345735351562501 1.0170000000000001 Q 6.392985351562501 1.0170000000000001 6.437235351562501 1.0170000000000001 Q 6.481485351562501 1.0170000000000001 6.517485351562501 1.0170000000000001 Q 6.553485351562501 1.0170000000000001 6.574485351562501 1.0170000000000001 Q 6.595485351562501 1.0170000000000001 6.595485351562501 1.0170000000000001 Q 6.703485351562501 1.0170000000000001 6.781485351562501 0.9607500000000001 Q 6.859485351562501 0.9045000000000001 6.901485351562501 0.801 Q 6.943485351562501 0.6975 6.943485351562501 0.555 Q 6.943485351562501 0.4125000000000001 6.901485351562501 0.30900000000000005 Q 6.859485351562501 0.20550000000000002 6.781485351562501 0.1492500000000001 Q 6.703485351562501 0.09300000000000008 6.595485351562501 0.09300000000000008 Q 6.595485351562501 0.09300000000000008 6.573735351562501 0.09300000000000008 Q 6.551985351562501 0.09300000000000008 6.5144853515625005 0.09300000000000008 Q 6.476985351562501 0.09300000000000008 6.430485351562501 0.09300000000000008 Q 6.383985351562501 0.09300000000000008 6.334485351562501 0.09300000000000008 Q 6.284985351562501 0.09300000000000008 6.239985351562501 0.09300000000000008 L 6.239985351562501 0.030000000000000027 L 6.613485351562501 0.030000000000000027 M 6.409485351562501 0.030000000000000027 L 6.409485351562501 1.08 L 6.1844853515625005 1.08 L 6.1844853515625005 0.030000000000000027 L 6.409485351562501 0.030000000000000027 M 6.188985351562501 0.9705 L 6.188985351562501 1.08 L 6.0689853515625005 1.08 L 6.0689853515625005 1.0650000000000002 Q 6.0689853515625005 1.0650000000000002 6.078735351562501 1.0650000000000002 Q 6.0884853515625 1.0650000000000002 6.0884853515625 1.0650000000000002 Q 6.127485351562501 1.0650000000000002 6.155235351562501 1.03725 Q 6.1829853515625 1.0095 6.1844853515625005 0.9705 L 6.188985351562501 0.9705 M 6.188985351562501 0.13950000000000007 L 6.1844853515625005 0.13950000000000007 Q 6.1844853515625005 0.10050000000000003 6.155985351562501 0.07275000000000009 Q 6.127485351562501 0.04500000000000015 6.0884853515625 0.04500000000000015 Q 6.0884853515625 0.04500000000000015 6.079485351562501 0.04500000000000015 Q 6.070485351562501 0.04500000000000015 6.070485351562501 0.04500000000000015 L 6.0689853515625005 0.030000000000000027 L 6.188985351562501 0.030000000000000027 L 6.188985351562501 0.13950000000000007 M 7.624460449218751 0.030000000000000027 L 7.624460449218751 1.08 L 7.399460449218751 1.08 L 7.399460449218751 0.030000000000000027 L 7.624460449218751 0.030000000000000027 M 7.403960449218751 0.9705 L 7.403960449218751 1.08 L 7.283960449218751 1.08 L 7.283960449218751 1.0650000000000002 Q 7.283960449218751 1.0650000000000002 7.293710449218751 1.0650000000000002 Q 7.3034604492187505 1.0650000000000002 7.3034604492187505 1.0650000000000002 Q 7.342460449218751 1.0650000000000002 7.370210449218751 1.03725 Q 7.3979604492187505 1.0095 7.399460449218751 0.9705 L 7.403960449218751 0.9705 M 7.403960449218751 0.13950000000000007 L 7.399460449218751 0.13950000000000007 Q 7.3979604492187505 0.10050000000000003 7.370210449218751 0.07275000000000009 Q 7.342460449218751 0.04500000000000015 7.3034604492187505 0.04500000000000015 Q 7.3034604492187505 0.04500000000000015 7.293710449218751 0.04500000000000015 Q 7.283960449218751 0.04500000000000015 7.283960449218751 0.04500000000000015 L 7.283960449218751 0.030000000000000027 L 7.403960449218751 0.030000000000000027 L 7.403960449218751 0.13950000000000007 M 7.619960449218751 0.9705 L 7.624460449218751 0.9705 Q 7.625960449218751 1.0095 7.653710449218751 1.03725 Q 7.681460449218751 1.0650000000000002 7.720460449218751 1.0650000000000002 Q 7.720460449218751 1.0650000000000002 7.729460449218751 1.0650000000000002 Q 7.738460449218751 1.0650000000000002 7.739960449218751 1.0650000000000002 L 7.739960449218751 1.08 L 7.619960449218751 1.08 L 7.619960449218751 0.9705 M 7.619960449218751 0.13950000000000007 L 7.619960449218751 0.030000000000000027 L 7.739960449218751 0.030000000000000027 L 7.739960449218751 0.04500000000000015 Q 7.738460449218751 0.04500000000000015 7.729460449218751 0.04500000000000015 Q 7.720460449218751 0.04500000000000015 7.720460449218751 0.04500000000000015 Q 7.681460449218751 0.04500000000000015 7.653710449218751 0.07275000000000009 Q 7.625960449218751 0.10050000000000003 7.624460449218751 0.13950000000000007 L 7.619960449218751 0.13950000000000007 M 8.192996337890627 0.030000000000000027 L 8.386496337890627 0.030000000000000027 Q 8.453996337890626 0.030000000000000027 8.518496337890626 0.04500000000000015 Q 8.582996337890625 0.06000000000000005 8.633246337890625 0.09300000000000008 Q 8.683496337890626 0.126 8.713496337890627 0.18000000000000005 Q 8.743496337890626 0.2340000000000001 8.743496337890626 0.3135 Q 8.743496337890626 0.37650000000000006 8.717246337890627 0.4387500000000001 Q 8.690996337890626 0.5010000000000001 8.636996337890626 0.54525 Q 8.582996337890625 0.5895000000000001 8.497496337890626 0.5985 Q 8.545496337890626 0.6135 8.585246337890625 0.6525000000000001 Q 8.624996337890625 0.6915 8.650496337890626 0.7305 Q 8.651996337890626 0.7335 8.667746337890627 0.7575000000000001 Q 8.683496337890626 0.7815000000000001 8.706746337890626 0.8167500000000001 Q 8.729996337890626 0.8520000000000001 8.755496337890627 0.8880000000000001 Q 8.780996337890626 0.924 8.801996337890627 0.9510000000000001 Q 8.834996337890626 0.9915 8.861996337890627 1.01625 Q 8.888996337890626 1.0410000000000001 8.918996337890626 1.0522500000000001 Q 8.948996337890627 1.0635000000000001 8.987996337890626 1.0650000000000002 L 8.987996337890626 1.08 L 8.840996337890626 1.08 Q 8.759996337890627 1.08 8.693996337890626 1.0650000000000002 Q 8.627996337890625 1.05 8.576996337890627 1.01625 Q 8.525996337890627 0.9825 8.488496337890625 0.924 Q 8.476496337890627 0.906 8.462246337890626 0.8782500000000001 Q 8.447996337890626 0.8505 8.432996337890627 0.8190000000000001 Q 8.417996337890626 0.7875000000000001 8.403746337890626 0.7582500000000001 Q 8.389496337890627 0.7290000000000001 8.378996337890626 0.7050000000000001 Q 8.368496337890626 0.681 8.363996337890626 0.6675 Q 8.344496337890625 0.6195 8.318246337890626 0.5955000000000001 Q 8.291996337890627 0.5715 8.261996337890626 0.5670000000000001 L 8.261996337890626 0.552 Q 8.266496337890626 0.552 8.279996337890626 0.552 Q 8.293496337890627 0.552 8.308496337890626 0.552 Q 8.348996337890625 0.552 8.387246337890627 0.5355000000000001 Q 8.425496337890626 0.519 8.455496337890626 0.48150000000000004 Q 8.485496337890627 0.44400000000000006 8.497496337890626 0.378 Q 8.500496337890626 0.36450000000000005 8.502746337890626 0.34650000000000003 Q 8.504996337890626 0.3285 8.503496337890626 0.30600000000000005 Q 8.498996337890626 0.19800000000000006 8.449496337890626 0.14775000000000005 Q 8.399996337890625 0.09750000000000003 8.326496337890626 0.09600000000000009 Q 8.305496337890625 0.09450000000000003 8.280746337890626 0.09525000000000006 Q 8.255996337890625 0.09600000000000009 8.235746337890626 0.09600000000000009 Q 8.215496337890626 0.09600000000000009 8.207996337890625 0.09600000000000009 Q 8.207996337890625 0.09450000000000003 8.204246337890625 0.0787500000000001 Q 8.200496337890627 0.06299999999999994 8.196746337890627 0.046499999999999986 Q 8.192996337890627 0.030000000000000027 8.192996337890627 0.030000000000000027 M 8.212496337890625 0.030000000000000027 L 8.212496337890625 1.08 L 7.987496337890626 1.08 L 7.987496337890626 0.030000000000000027 L 8.212496337890625 0.030000000000000027 M 7.991996337890626 0.9705 L 7.991996337890626 1.08 L 7.871996337890626 1.08 L 7.871996337890626 1.0650000000000002 Q 7.873496337890626 1.0650000000000002 7.881746337890626 1.0650000000000002 Q 7.889996337890626 1.0650000000000002 7.891496337890626 1.0650000000000002 Q 7.930496337890626 1.0650000000000002 7.958246337890626 1.03725 Q 7.985996337890626 1.0095 7.987496337890626 0.9705 L 7.991996337890626 0.9705 M 7.991996337890626 0.13950000000000007 L 7.987496337890626 0.13950000000000007 Q 7.985996337890626 0.10050000000000003 7.958246337890626 0.07275000000000009 Q 7.930496337890626 0.04500000000000015 7.891496337890626 0.04500000000000015 Q 7.889996337890626 0.04500000000000015 7.881746337890626 0.04500000000000015 Q 7.873496337890626 0.04500000000000015 7.871996337890626 0.04500000000000015 L 7.871996337890626 0.030000000000000027 L 7.991996337890626 0.030000000000000027 L 7.991996337890626 0.13950000000000007 M 8.207996337890625 0.9705 L 8.212496337890625 0.9705 Q 8.212496337890625 1.0095 8.240996337890627 1.03725 Q 8.269496337890626 1.0650000000000002 8.308496337890626 1.0650000000000002 Q 8.311496337890626 1.0650000000000002 8.318996337890626 1.0650000000000002 Q 8.326496337890626 1.0650000000000002 8.326496337890626 1.0650000000000002 L 8.326496337890626 1.08 L 8.207996337890625 1.08 L 8.207996337890625 0.9705 M 9.313474365234375 0.030000000000000027 L 9.313474365234375 1.08 L 9.088474365234376 1.08 L 9.088474365234376 0.030000000000000027 L 9.313474365234375 0.030000000000000027 M 9.709474365234376 1.0155 L 9.745474365234376 1.08 L 9.308974365234377 1.08 L 9.308974365234377 1.0155 L 9.709474365234376 1.0155 M 9.653974365234376 0.531 L 9.653974365234376 0.5940000000000001 L 9.308974365234377 0.5940000000000001 L 9.308974365234377 0.531 L 9.653974365234376 0.531 M 9.727474365234377 0.030000000000000027 L 9.727474365234377 0.09450000000000003 L 9.308974365234377 0.09450000000000003 L 9.308974365234377 0.030000000000000027 L 9.727474365234377 0.030000000000000027 M 9.818974365234377 0.774 L 9.749974365234376 1.08 L 9.455974365234376 1.08 L 9.509974365234376 1.0155 Q 9.584974365234377 1.0155 9.641974365234375 0.9862500000000001 Q 9.698974365234376 0.9570000000000001 9.739474365234376 0.9022500000000001 Q 9.779974365234375 0.8475 9.803974365234376 0.774 L 9.818974365234377 0.774 M 9.653974365234376 0.5910000000000001 L 9.653974365234376 0.7350000000000001 L 9.638974365234375 0.7350000000000001 L 9.638974365234375 0.7215 Q 9.638974365234375 0.6675 9.602974365234376 0.6315000000000001 Q 9.566974365234376 0.5955000000000001 9.511474365234376 0.5940000000000001 L 9.511474365234376 0.5910000000000001 L 9.653974365234376 0.5910000000000001 M 9.653974365234376 0.39 L 9.653974365234376 0.534 L 9.511474365234376 0.534 L 9.511474365234376 0.531 Q 9.566974365234376 0.5295000000000001 9.602974365234376 0.49275 Q 9.638974365234375 0.45600000000000007 9.638974365234375 0.402 L 9.638974365234375 0.39 L 9.653974365234376 0.39 M 9.727474365234377 0.09000000000000008 L 9.727474365234377 0.26550000000000007 L 9.712474365234376 0.26550000000000007 L 9.712474365234376 0.24750000000000005 Q 9.712474365234376 0.1785000000000001 9.671224365234377 0.13650000000000007 Q 9.629974365234377 0.09450000000000003 9.559474365234376 0.09300000000000008 L 9.559474365234376 0.09000000000000008 L 9.727474365234377 0.09000000000000008 M 9.727474365234377 0.0030000000000001137 L 9.727474365234377 0.046499999999999986 L 9.544474365234375 0.030000000000000027 Q 9.577474365234377 0.030000000000000027 9.614224365234376 0.025500000000000078 Q 9.650974365234376 0.02100000000000013 9.682474365234377 0.015000000000000124 Q 9.713974365234376 0.009000000000000119 9.727474365234377 0.0030000000000001137 M 9.092974365234376 0.9705 L 9.092974365234376 1.08 L 8.972974365234377 1.08 L 8.972974365234377 1.0650000000000002 Q 8.972974365234377 1.0650000000000002 8.982724365234375 1.0650000000000002 Q 8.992474365234376 1.0650000000000002 8.992474365234376 1.0650000000000002 Q 9.031474365234375 1.0650000000000002 9.059224365234376 1.03725 Q 9.086974365234376 1.0095 9.088474365234376 0.9705 L 9.092974365234376 0.9705 M 9.092974365234376 0.13950000000000007 L 9.088474365234376 0.13950000000000007 Q 9.086974365234376 0.10050000000000003 9.059224365234376 0.07275000000000009 Q 9.031474365234375 0.04500000000000015 8.992474365234376 0.04500000000000015 Q 8.992474365234376 0.04500000000000015 8.982724365234375 0.04500000000000015 Q 8.972974365234377 0.04500000000000015 8.972974365234377 0.04500000000000015 L 8.972974365234377 0.030000000000000027 L 9.092974365234376 0.030000000000000027 L 9.092974365234376 0.13950000000000007 M 10.932009521484376 0.6420000000000001 L 10.945509521484377 0.9000000000000001 Q 10.912509521484376 0.9555 10.857009521484375 1.0005000000000002 Q 10.801509521484377 1.0455 10.719009521484375 1.07325 Q 10.636509521484376 1.101 10.524009521484377 1.101 Q 10.341009521484377 1.0995000000000001 10.203759521484375 1.0342500000000001 Q 10.066509521484376 0.9690000000000001 9.991509521484376 0.8475 Q 9.916509521484377 0.7260000000000001 9.916509521484377 0.5535000000000001 Q 9.916509521484377 0.38550000000000006 9.990009521484376 0.2632500000000001 Q 10.063509521484375 0.14100000000000001 10.200759521484375 0.07499999999999996 Q 10.338009521484377 0.009000000000000119 10.528509521484377 0.009000000000000119 Q 10.648509521484376 0.009000000000000119 10.743759521484376 0.03300000000000014 Q 10.839009521484376 0.05699999999999994 10.902009521484377 0.09150000000000003 L 10.905009521484377 0.3480000000000001 L 10.891509521484377 0.3480000000000001 Q 10.851009521484377 0.1995 10.759509521484377 0.13575000000000004 Q 10.668009521484377 0.07200000000000006 10.545009521484376 0.07200000000000006 Q 10.425009521484377 0.07200000000000006 10.339509521484377 0.13050000000000006 Q 10.254009521484376 0.18900000000000006 10.207509521484376 0.2955000000000001 Q 10.161009521484376 0.402 10.161009521484376 0.5505000000000001 Q 10.161009521484376 0.6990000000000001 10.205259521484376 0.807 Q 10.249509521484375 0.915 10.331259521484377 0.9750000000000001 Q 10.413009521484376 1.0350000000000001 10.524009521484377 1.038 Q 10.639509521484376 1.038 10.719009521484375 1.0005000000000002 Q 10.798509521484377 0.9630000000000001 10.847259521484377 0.8760000000000001 Q 10.896009521484377 0.7890000000000001 10.920009521484376 0.6420000000000001 L 10.932009521484376 0.6420000000000001 M 11.635553466796877 0.034499999999999975 L 11.635553466796877 1.08 L 11.410553466796877 1.08 L 11.410553466796877 0.034499999999999975 L 11.635553466796877 0.034499999999999975 M 12.003053466796876 0.02849999999999997 L 12.003053466796876 0.09150000000000003 L 11.043053466796877 0.09150000000000003 L 11.043053466796877 0.02849999999999997 L 12.003053466796876 0.02849999999999997 M 12.003053466796876 0.08700000000000008 L 12.003053466796876 0.264 L 11.988053466796876 0.26250000000000007 L 11.988053466796876 0.2460000000000001 Q 11.988053466796876 0.1755000000000001 11.946803466796876 0.1342500000000001 Q 11.905553466796876 0.09300000000000008 11.835053466796877 0.09150000000000003 L 11.835053466796877 0.08700000000000008 L 12.003053466796876 0.08700000000000008 M 12.003053466796876 0.0015000000000000568 L 12.003053466796876 0.04500000000000015 L 11.820053466796876 0.02849999999999997 Q 11.853053466796876 0.02849999999999997 11.889803466796877 0.02400000000000002 Q 11.926553466796877 0.019500000000000073 11.958053466796876 0.013500000000000068 Q 11.989553466796876 0.007500000000000062 12.003053466796876 0.0015000000000000568 M 11.415053466796877 0.9705 L 11.415053466796877 1.08 L 11.295053466796876 1.08 L 11.295053466796876 1.0650000000000002 Q 11.295053466796876 1.0650000000000002 11.304803466796876 1.0650000000000002 Q 11.314553466796877 1.0650000000000002 11.314553466796877 1.0650000000000002 Q 11.353553466796876 1.0650000000000002 11.381303466796876 1.03725 Q 11.409053466796877 1.0095 11.410553466796877 0.9705 L 11.415053466796877 0.9705 M 11.631053466796876 0.9705 L 11.635553466796877 0.9705 Q 11.637053466796877 1.0095 11.664803466796876 1.03725 Q 11.692553466796877 1.0650000000000002 11.731553466796877 1.0650000000000002 Q 11.731553466796877 1.0650000000000002 11.741303466796877 1.0650000000000002 Q 11.751053466796876 1.0650000000000002 11.751053466796876 1.0650000000000002 L 11.751053466796876 1.08 L 11.631053466796876 1.08 L 11.631053466796876 0.9705 M 11.209553466796876 0.08700000000000008 L 11.209553466796876 0.09150000000000003 Q 11.140553466796876 0.09300000000000008 11.099303466796876 0.1342500000000001 Q 11.058053466796876 0.1755000000000001 11.058053466796876 0.2460000000000001 L 11.058053466796876 0.26250000000000007 L 11.043053466796877 0.264 L 11.043053466796877 0.08700000000000008 L 11.209553466796876 0.08700000000000008 M 11.043053466796877 0.0015000000000000568 Q 11.058053466796876 0.007500000000000062 11.088803466796877 0.013500000000000068 Q 11.119553466796877 0.019500000000000073 11.157053466796876 0.02400000000000002 Q 11.194553466796876 0.02849999999999997 11.226053466796877 0.02849999999999997 L 11.043053466796877 0.04500000000000015 L 11.043053466796877 0.0015000000000000568" fill="#ffffff" fill-rule="nonzero"></path></g><g></g><g clip-path="url(#SvgjsClipPath1002)"><g clip-path="url(#b4b85c17f-eaaa-4a0b-8272-aebd88ee70158323d619-a97f-405d-951a-021124fef76b)"><path d=" M 3.758278751722461 -2.8571424039988647 C 4.274186549824513 -1.5877534290361561 6.083590304002655 -0.9975924486497538 7.854809336188226 -1.7174894724326055 C 9.626028368373799 -2.4374785075937533 10.688299730793663 -4.194895833035021 10.172299921313314 -5.4643768193760245 C 9.656300111832968 -6.733765794338733 7.802178827803284 -7.1791928766665425 6.030959795617713 -6.459295852883691 C 4.259740763432141 -5.739306817722543 3.242278942242114 -4.126623390339868 3.758278751722461 -2.8571424039988647" fill="#ff0000" transform="matrix(1,0,0,1,0,0)" fill-rule="nonzero"></path></g><g clip-path="url(#b4b85c17f-eaaa-4a0b-8272-aebd88ee70158323d619-a97f-405d-951a-021124fef76b)"><path d=" M 3.978093934470062 -2.950533952968649 C 4.454896896796588 -1.777664913837767 6.176061739189486 -1.36941042834128 7.822605353784852 -2.0387932054399824 C 9.469148968380217 -2.7079919597820954 10.417510244470433 -4.201336629515696 9.940799293522202 -5.374205668646578 C 9.463996331195679 -6.547074707777459 7.742739477424485 -6.955237181895651 6.096103851450824 -6.285946416175244 C 4.449652248233753 -5.616747661833132 3.5013829835218315 -4.123402992099531 3.978093934470062 -2.950533952968649" fill="#ff0000" transform="matrix(1,0,0,1,0,0)" fill-rule="nonzero"></path></g><g clip-path="url(#b4b85c17f-eaaa-4a0b-8272-aebd88ee70158323d619-a97f-405d-951a-021124fef76b)"><path d=" M 5.146178381929586 -3.795290417098297 C 5.146178381929586 -3.6343625164597224 5.207641982630882 -3.50389038203691 5.28355136972455 -3.50389038203691 C 5.359368745439921 -3.50389038203691 5.420832346141218 -3.6343625164597224 5.420832346141218 -3.795290417098297 C 5.420832346141218 -3.9562183177368717 5.359368745439921 -4.086690452159684 5.28355136972455 -4.086690452159684 C 5.207641982630882 -4.086690452159684 5.146178381929586 -3.9562183177368717 5.146178381929586 -3.795290417098297" fill="#ff0000" transform="matrix(1,0,0,1,0,0)" fill-rule="nonzero"></path></g><g clip-path="url(#b4b85c17f-eaaa-4a0b-8272-aebd88ee70158323d619-a97f-405d-951a-021124fef76b)"><path d=" M 9.88043982936045 -5.298848349822682 C 9.435932860815592 -6.392403580862968 7.8249976496205305 -6.77047833427858 6.282518903877209 -6.14342079119574 C 4.739948146755594 -5.516455259491195 3.849922084504633 -4.121746787290214 4.294337041671194 -3.0282835676282236 C 4.738844010216051 -1.934820347966233 6.349595198654524 -1.5566535831723263 7.8921659557761386 -2.183619114876871 C 9.43464470151946 -2.8106766579597107 10.324854786527013 -4.205385130160692 9.88043982936045 -5.298848349822682" fill="#ff0000" transform="matrix(1,0,0,1,0,0)" fill-rule="nonzero"></path></g><g clip-path="url(#b4b85c17f-eaaa-4a0b-8272-aebd88ee70158323d619-a97f-405d-951a-021124fef76b)"><path d=" M 9.44752629448081 -5.71759213244484 C 9.44752629448081 -5.71759213244484 7.817268693843721 -5.884868818185794 6.7523290014532895 -5.674714830159204 C 6.7523290014532895 -5.674714830159204 6.437098019413407 -5.660637089280016 5.939592496970426 -5.107280660211755 L 5.925698778847827 -5.1352521192135425 C 5.925698778847827 -5.1352521192135425 5.568326585548671 -5.135344130591838 5.582312315049564 -5.009196530948907 L 5.568326585548671 -4.925098131186953 L 5.74342423844473 -4.86197832567634 C 5.74342423844473 -4.86197832567634 5.617368650180095 -4.882956919927681 5.189975797998174 -4.714852131782068 C 5.189975797998174 -4.714852131782068 4.888086465811115 -4.637838608148856 4.888086465811115 -4.329508479481124 C 4.888086465811115 -4.329508479481124 4.885050090327368 -4.016025713628853 4.9061206959570045 -3.791885996101369 L 4.760834729628641 -3.7900457685354616 L 4.475507445534747 -3.7900457685354616 C 4.475507445534747 -3.7900457685354616 4.32571292166991 -5.263792014692152 6.590204952896877 -6.125938629319622 C 6.590204952896877 -6.125938629319622 8.465396842556197 -6.7726866073576675 9.44752629448081 -5.71759213244484" fill="#ff0000" transform="matrix(1,0,0,1,0,0)" fill-rule="nonzero"></path></g><g clip-path="url(#b4b85c17f-eaaa-4a0b-8272-aebd88ee70158323d619-a97f-405d-951a-021124fef76b)"><path d=" M 5.307474328081342 -4.342942140712246 C 5.307474328081342 -4.342942140712246 4.977981582405678 -4.402933559360816 4.98387031061658 -3.737875317041996 C 4.98387031061658 -3.737875317041996 4.97200084281648 -3.174673670496132 5.349431516584023 -3.198596628852924 L 5.596298044550459 -3.2085338577088227 C 5.596298044550459 -3.2085338577088227 5.726126099325203 -3.3215238302555177 5.771487708824813 -3.4817156398677294 L 5.643039824724498 -3.4861321860259062 C 5.643039824724498 -3.4861321860259062 5.52912973839485 -3.4381942579340268 5.49922604044886 -3.719841086896106 C 5.49922604044886 -3.719841086896106 5.439326633178585 -4.097363772041945 5.307474328081342 -4.342942140712246" fill="#ff0000" transform="matrix(1,0,0,1,0,0)" fill-rule="nonzero"></path></g><g clip-path="url(#b4b85c17f-eaaa-4a0b-8272-aebd88ee70158323d619-a97f-405d-951a-021124fef76b)"><path d=" M 5.04984246885435 -3.7738517659554796 C 5.04984246885435 -3.5454795250264106 5.116918763631663 -3.3604446432744526 5.199636992719186 -3.3604446432744526 C 5.282355221806711 -3.3604446432744526 5.349431516584024 -3.5454795250264106 5.349431516584024 -3.7738517659554796 C 5.349431516584024 -4.002131995506254 5.282355221806711 -4.1872588886365065 5.199636992719186 -4.1872588886365065 C 5.116918763631663 -4.1872588886365065 5.04984246885435 -4.002131995506254 5.04984246885435 -3.7738517659554796" fill="#ff0000" transform="matrix(1,0,0,1,0,0)" fill-rule="nonzero"></path></g><g clip-path="url(#b4b85c17f-eaaa-4a0b-8272-aebd88ee70158323d619-a97f-405d-951a-021124fef76b)"><path d=" M 8.287630859689573 -3.242302033543218 C 8.287630859689573 -3.242302033543218 8.114741479872603 -3.8075279304115797 7.988409857473081 -3.9603588297601626 C 7.988409857473081 -3.9603588297601626 7.496425017727821 -4.040132694742235 7.436617621835841 -3.468373990014903 C 7.436617621835841 -3.468373990014903 7.296944349583493 -2.604019102308345 7.862170246451854 -2.4910291297616505 L 8.261039571362216 -2.504370779614476 C 8.261039571362216 -2.504370779614476 8.53366928525135 -2.59739428307108 8.57351021205324 -2.943173042705021 C 8.57351021205324 -2.943173042705021 8.334096605728728 -2.949797861942286 8.287630859689573 -3.242302033543218 M 7.799970554724195 -2.670635340194181 C 7.621928537722684 -2.674683840839177 7.483083367874995 -2.921918414318794 7.489984221247147 -3.2229796441011938 C 7.496701051862708 -3.524040873883593 7.646495575727544 -3.764834650882535 7.824537592729055 -3.7606941388592445 C 8.002579609730565 -3.7568296609708396 8.141424779578255 -3.5095030761129267 8.1346159375844 -3.208533857708823 C 8.127899106968837 -2.9074726279264236 7.9780125717257055 -2.6666788509274815 7.799970554724195 -2.670635340194181" fill="#ff0000" transform="matrix(1,0,0,1,0,0)" fill-rule="nonzero"></path></g><g clip-path="url(#b4b85c17f-eaaa-4a0b-8272-aebd88ee70158323d619-a97f-405d-951a-021124fef76b)"><path d=" M 9.621703833593916 -4.348278800653377 L 9.001179098370045 -4.333096923234644 L 9.02666625015786 -4.536534080645671 C 9.02666625015786 -4.536534080645671 9.174160489565311 -4.668754431256096 9.540365775180822 -4.6788756828685845 C 9.540365775180822 -4.6788756828685845 9.774258698807614 -4.704362834656397 9.764137447195123 -4.48565178844834 C 9.764137447195123 -4.48565178844834 9.765057560978079 -4.426856517717609 9.738190238515834 -4.352419312676668 Z" fill="#ff0000" transform="matrix(1,0,0,1,0,0)" fill-rule="nonzero"></path></g><g clip-path="url(#b4b85c17f-eaaa-4a0b-8272-aebd88ee70158323d619-a97f-405d-951a-021124fef76b)"><path d=" M 5.932875666354865 -4.8551694836824835 L 6.021758657788176 -5.110133012938911 C 6.021758657788176 -5.110133012938911 6.436729973900225 -5.673242648106479 7.053206208479098 -5.625764776906076 C 7.053206208479098 -5.625764776906076 6.774687766379062 -5.282010267594632 6.697582231367554 -4.884797147493588 Z" fill="#ff0000" transform="matrix(1,0,0,1,0,0)" fill-rule="nonzero"></path></g><g clip-path="url(#b4b85c17f-eaaa-4a0b-8272-aebd88ee70158323d619-a97f-405d-951a-021124fef76b)"><path d=" M 6.798334690600967 -4.8965746039153935 C 6.798334690600967 -4.8965746039153935 6.934695553234683 -5.335192844249347 7.17180887510181 -5.631561493738683 C 7.17180887510181 -5.631561493738683 7.788285109680684 -5.72651723613949 7.966143103925605 -5.353043051638647 L 8.08465375917002 -5.027046738338206 C 8.08465375917002 -5.027046738338206 8.108392694770224 -4.8905938643261955 7.782304370091486 -4.908444071715494 Z" fill="#ff0000" transform="matrix(1,0,0,1,0,0)" fill-rule="nonzero"></path></g><g clip-path="url(#b4b85c17f-eaaa-4a0b-8272-aebd88ee70158323d619-a97f-405d-951a-021124fef76b)"><path d=" M 7.627081174907224 -3.20402530017235 C 7.627081174907224 -2.983750060533272 7.711271586047474 -2.8050639638836934 7.815060420764633 -2.8050639638836934 C 7.918941266860088 -2.8050639638836934 8.003131678000337 -2.983750060533272 8.003131678000337 -3.20402530017235 C 8.003131678000337 -3.4243005398114286 7.918941266860088 -3.6029866364610066 7.815060420764633 -3.6029866364610066 C 7.711271586047474 -3.6029866364610066 7.627081174907224 -3.4243005398114286 7.627081174907224 -3.20402530017235" fill="#ff0000" transform="matrix(1,0,0,1,0,0)" fill-rule="nonzero"></path></g><g clip-path="url(#b4b85c17f-eaaa-4a0b-8272-aebd88ee70158323d619-a97f-405d-951a-021124fef76b)"><path d=" M 5.90306397978717 -5.043240740918188 L 5.808936339791023 -4.904671605205384 L 5.672851511292194 -4.92693835875286 C 5.672851511292194 -4.92693835875286 5.701743084076935 -5.1040602619714175 5.90306397978717 -5.043240740918188" fill="#ff0000" transform="matrix(1,0,0,1,0,0)" fill-rule="nonzero"></path></g><g clip-path="url(#b4b85c17f-eaaa-4a0b-8272-aebd88ee70158323d619-a97f-405d-951a-021124fef76b)"><path d=" M 5.22770046309927 -3.285179335828853 L 5.238097748846645 -3.2749660728380685 L 6.88188102209315 -2.721517632391512 L 6.7931820534164284 -2.711304369400728 L 5.204789629903726 -3.211846267327456 Z" fill="#ff0000" transform="matrix(1,0,0,1,0,0)" fill-rule="nonzero"></path></g><g clip-path="url(#b4b85c17f-eaaa-4a0b-8272-aebd88ee70158323d619-a97f-405d-951a-021124fef76b)"><path d=" M 5.484228185786717 -3.312690737939164 L 5.494625471534092 -3.3024774749483794 L 7.138408744780596 -2.749029034501823 L 7.0497097761038745 -2.738815771511039 L 5.461317352591173 -3.2393576694377666 Z" fill="#ff0000" transform="matrix(1,0,0,1,0,0)" fill-rule="nonzero"></path></g><g clip-path="url(#b4b85c17f-eaaa-4a0b-8272-aebd88ee70158323d619-a97f-405d-951a-021124fef76b)"><path d=" M 5.513395792706344 -3.493953153181012 L 5.76283863926505 -3.4853040836212488 L 6.594989544568234 -3.2001608222839457 L 6.506290575891512 -3.189947559293161 L 5.729438508943836 -3.422184278110636 Z" fill="#ff0000" transform="matrix(1,0,0,1,0,0)" fill-rule="nonzero"></path></g><g clip-path="url(#b4b85c17f-eaaa-4a0b-8272-aebd88ee70158323d619-a97f-405d-951a-021124fef76b)"><path d=" M 8.649971667416679 -3.728674179212461 L 8.649971667416679 -3.6107155922378165 L 8.94882462411999 -3.594981646549311 L 8.933090678431485 -3.7129402335239554 Z" fill="#ff0000" transform="matrix(1,0,0,1,0,0)" fill-rule="nonzero"></path></g><g clip-path="url(#b4b85c17f-eaaa-4a0b-8272-aebd88ee70158323d619-a97f-405d-951a-021124fef76b)"><path d=" M 6.732178509606608 -4.6945176171787955 L 7.671430659245585 -4.671974829496433 C 7.671430659245585 -4.671974829496433 7.502681791451906 -4.463937103170638 7.311482147354159 -3.907084241727153 C 7.311482147354159 -3.907084241727153 7.263544219262279 -4.019614157382371 7.5456511051158355 -4.60747485331139 Z" fill="#ff0000" transform="matrix(1,0,0,1,0,0)" fill-rule="nonzero"></path></g><g clip-path="url(#b4b85c17f-eaaa-4a0b-8272-aebd88ee70158323d619-a97f-405d-951a-021124fef76b)"><path d=" M 5.6898736162768335 -4.6945176171787955 L 6.629125765915811 -4.671974829496433 C 6.629125765915811 -4.671974829496433 6.4603768981221315 -4.463937103170638 6.2691772540243855 -3.907084241727153 C 6.2691772540243855 -3.907084241727153 6.221239325932505 -4.019614157382371 6.503346211786061 -4.60747485331139 Z" fill="#ff0000" transform="matrix(1,0,0,1,0,0)" fill-rule="nonzero"></path></g><g clip-path="url(#b4b85c17f-eaaa-4a0b-8272-aebd88ee70158323d619-a97f-405d-951a-021124fef76b)"><path d=" M 7.7621538782448045 -3.176145852548858 C 7.7621538782448045 -3.034540341352308 7.821317194488717 -2.9197101412397055 7.894374228855229 -2.9197101412397055 C 7.967339251843445 -2.9197101412397055 8.026502568087357 -3.034540341352308 8.026502568087357 -3.176145852548858 C 8.026502568087357 -3.3178433751237035 7.967339251843445 -3.4326735752363056 7.894374228855229 -3.4326735752363056 C 7.821317194488717 -3.4326735752363056 7.7621538782448045 -3.3178433751237035 7.7621538782448045 -3.176145852548858" fill="#ff0000" transform="matrix(1,0,0,1,0,0)" fill-rule="nonzero"></path></g><g clip-path="url(#b4b85c17f-eaaa-4a0b-8272-aebd88ee70158323d619-a97f-405d-951a-021124fef76b)"><path d=" M 9.537421411075371 -5.593008726232931 C 8.89177756957687 -5.631377470982094 8.192123049018996 -5.5909844759104335 8.192123049018996 -5.5909844759104335 L 8.797465906824133 -4.973036059278833 L 9.785300064203055 -5.0255745562854806 C 9.740306500216628 -5.300320531875409 9.615171025734945 -5.4950166083483785 9.537421411075371 -5.593008726232931" fill="#ff0000" transform="matrix(1,0,0,1,0,0)" fill-rule="nonzero"></path></g><g clip-path="url(#b4b85c17f-eaaa-4a0b-8272-aebd88ee70158323d619-a97f-405d-951a-021124fef76b)"><path d=" M 5.168353124098766 -3.768515106014349 C 5.168353124098766 -3.614672081504517 5.215462949785986 -3.4899966639143116 5.273614140868651 -3.4899966639143116 C 5.331673320573019 -3.4899966639143116 5.37878314626024 -3.614672081504517 5.37878314626024 -3.768515106014349 C 5.37878314626024 -3.9223581305241813 5.331673320573019 -4.047033548114387 5.273614140868651 -4.047033548114387 C 5.215462949785986 -4.047033548114387 5.168353124098766 -3.9223581305241813 5.168353124098766 -3.768515106014349" fill="#ff0000" transform="matrix(1,0,0,1,0,0)" fill-rule="nonzero"></path></g><g clip-path="url(#b4b85c17f-eaaa-4a0b-8272-aebd88ee70158323d619-a97f-405d-951a-021124fef76b)"><path d=" M 3.2824879145571835 -2.8389241510963843 C 3.7983957126592354 -1.5695351761336758 5.652516996688919 -1.124108093805865 7.423736028874491 -1.8440051175887175 C 9.194955061060062 -2.5639941527498653 10.212508893628385 -4.176677580132541 9.696509084148039 -5.446158566473544 C 9.180509274667692 -6.715547541436253 7.326387990638007 -7.160974623764063 5.555168958452435 -6.441077599981211 C 3.7839499262668643 -5.721088564820064 2.766488105076836 -4.108405137437389 3.2824879145571835 -2.8389241510963843" fill="#ff0000" transform="matrix(1,0,0,1,0,0)" fill-rule="nonzero"></path></g><g clip-path="url(#b4b85c17f-eaaa-4a0b-8272-aebd88ee70158323d619-a97f-405d-951a-021124fef76b)"><path d=" M 3.502303097304785 -2.932315700066169 C 3.9791060596313113 -1.7594466609352875 5.70027090202421 -1.3511921754388005 7.346814516619576 -2.020574952537503 C 8.993358131214942 -2.689773706879615 9.941719407305158 -4.183118376613216 9.465008456356927 -5.355987415744098 C 8.9882054940304 -6.528856454874979 7.266948640259208 -6.9370189289931705 5.620313014285546 -6.267728163272763 C 3.973861411068476 -5.598529408930651 3.0255921463565545 -4.105184739197051 3.502303097304785 -2.932315700066169" fill="#ff0000" transform="matrix(1,0,0,1,0,0)" fill-rule="nonzero"></path></g><g clip-path="url(#b4b85c17f-eaaa-4a0b-8272-aebd88ee70158323d619-a97f-405d-951a-021124fef76b)"><path d=" M 4.670387544764308 -3.777072164195817 C 4.670387544764308 -3.616144263557242 4.731851145465605 -3.48567212913443 4.807760532559272 -3.48567212913443 C 4.883577908274644 -3.48567212913443 4.945041508975941 -3.616144263557242 4.945041508975941 -3.777072164195817 C 4.945041508975941 -3.9380000648343914 4.883577908274644 -4.068472199257204 4.807760532559272 -4.068472199257204 C 4.731851145465605 -4.068472199257204 4.670387544764308 -3.9380000648343914 4.670387544764308 -3.777072164195817" fill="#ff0000" transform="matrix(1,0,0,1,0,0)" fill-rule="nonzero"></path></g><g clip-path="url(#b4b85c17f-eaaa-4a0b-8272-aebd88ee70158323d619-a97f-405d-951a-021124fef76b)"><path d=" M 9.404648992195174 -5.280538085541907 C 8.960142023650317 -6.374093316582193 7.349206812455255 -6.752168069997804 5.8067280667119325 -6.125110526914964 C 4.264157309590318 -5.49814499521042 3.3741312473393563 -4.103436523009439 3.8185462045059175 -3.009973303347448 C 4.263053173050775 -1.9165100836854574 5.873804361489247 -1.5383433188915507 7.416375118610862 -2.1653088505960953 C 8.958853864354182 -2.792366393678935 9.849063949361735 -4.187074865879916 9.404648992195174 -5.280538085541907" fill="#ff0000" transform="matrix(1,0,0,1,0,0)" fill-rule="nonzero"></path></g><g clip-path="url(#b4b85c17f-eaaa-4a0b-8272-aebd88ee70158323d619-a97f-405d-951a-021124fef76b)"><path d=" M 8.971735457315532 -5.699281868164064 C 8.971735457315532 -5.699281868164064 7.341477856678445 -5.866558553905018 6.276538164288013 -5.656404565878429 C 6.276538164288013 -5.656404565878429 5.96130718224813 -5.642326824999239 5.463801659805149 -5.088970395930978 L 5.44990794168255 -5.116941854932767 C 5.44990794168255 -5.116941854932767 5.092535748383394 -5.117033866311062 5.106521477884288 -4.990886266668131 L 5.092535748383394 -4.9067878669061775 L 5.267633401279453 -4.843668061395564 C 5.267633401279453 -4.843668061395564 5.141577813014819 -4.864646655646905 4.714184960832897 -4.696541867501292 C 4.714184960832897 -4.696541867501292 4.412295628645839 -4.619528343868081 4.412295628645839 -4.311198215200349 C 4.412295628645839 -4.311198215200349 4.409259253162093 -3.997715449348077 4.430329858791728 -3.7735757318205936 L 4.285043892463364 -3.771735504254686 L 3.9997166083694706 -3.771735504254686 C 3.9997166083694706 -3.771735504254686 3.849922084504634 -5.245481750411376 6.1144141157316 -6.107628365038846 C 6.1144141157316 -6.107628365038846 7.989606005390921 -6.754376343076892 8.971735457315532 -5.699281868164064" fill="#ff0000" transform="matrix(1,0,0,1,0,0)" fill-rule="nonzero"></path></g><g clip-path="url(#b4b85c17f-eaaa-4a0b-8272-aebd88ee70158323d619-a97f-405d-951a-021124fef76b)"><path d=" M 4.831775502294359 -4.324723887809766 C 4.831775502294359 -4.324723887809766 4.502282756618696 -4.384715306458337 4.508171484829598 -3.7196570641395157 C 4.508171484829598 -3.7196570641395157 4.496302017029498 -3.156455417593652 4.873732690797041 -3.1803783759504443 L 5.120599218763477 -3.1903156048063424 C 5.120599218763477 -3.1903156048063424 5.250427273538222 -3.3033055773530373 5.295788883037832 -3.4634973869652494 L 5.167340998937517 -3.4679139331234263 C 5.167340998937517 -3.4679139331234263 5.053430912607868 -3.4199760050315464 5.023527214661878 -3.701622833993626 C 5.023527214661878 -3.701622833993626 4.963627807391602 -4.079145519139464 4.831775502294359 -4.324723887809766" fill="#ff0000" transform="matrix(1,0,0,1,0,0)" fill-rule="nonzero"></path></g><g clip-path="url(#b4b85c17f-eaaa-4a0b-8272-aebd88ee70158323d619-a97f-405d-951a-021124fef76b)"><path d=" M 4.5740516316890725 -3.7556335130529996 C 4.5740516316890725 -3.5272612721239303 4.641127926466385 -3.3422263903719722 4.723846155553909 -3.3422263903719722 C 4.806564384641433 -3.3422263903719722 4.873640679418746 -3.5272612721239303 4.873640679418746 -3.7556335130529996 C 4.873640679418746 -3.9839137426037734 4.806564384641433 -4.169040635734026 4.723846155553909 -4.169040635734026 C 4.641127926466385 -4.169040635734026 4.5740516316890725 -3.9839137426037734 4.5740516316890725 -3.7556335130529996" fill="#ff0000" transform="matrix(1,0,0,1,0,0)" fill-rule="nonzero"></path></g><g clip-path="url(#b4b85c17f-eaaa-4a0b-8272-aebd88ee70158323d619-a97f-405d-951a-021124fef76b)"><path d=" M 7.811840022524295 -3.2240837806407376 C 7.811840022524295 -3.2240837806407376 7.638950642707325 -3.7893096775090993 7.512619020307803 -3.9421405768576827 C 7.512619020307803 -3.9421405768576827 7.020634180562544 -4.021914441839755 6.960826784670563 -3.450155737112423 C 6.960826784670563 -3.450155737112423 6.821153512418215 -2.5858008494058646 7.386379409286577 -2.47281087685917 L 7.785248734196939 -2.4861525267119964 C 7.785248734196939 -2.4861525267119964 8.057878448086072 -2.5791760301685995 8.097719374887962 -2.9249547898025408 C 8.097719374887962 -2.9249547898025408 7.85830576856345 -2.9315796090398063 7.811840022524295 -3.2240837806407376 M 7.324179717558917 -2.6524170872917017 C 7.146137700557406 -2.6564655879366974 7.007292530709718 -2.903700161416314 7.014193384081869 -3.2047613911987134 C 7.02091021469743 -3.5058226209811125 7.170704738562266 -3.746616397980055 7.348746755563777 -3.742475885956764 C 7.526788772565288 -3.7386114080683592 7.665633942412978 -3.4912848232104468 7.658825100419121 -3.190315604806343 C 7.65210826980356 -2.8892543750239432 7.502221734560428 -2.648460598025001 7.324179717558917 -2.6524170872917017" fill="#ff0000" transform="matrix(1,0,0,1,0,0)" fill-rule="nonzero"></path></g><g clip-path="url(#b4b85c17f-eaaa-4a0b-8272-aebd88ee70158323d619-a97f-405d-951a-021124fef76b)"><path d=" M 9.145912996428638 -4.330060547750897 L 8.52538826120477 -4.314878670332163 L 8.550875412992582 -4.518315827743192 C 8.550875412992582 -4.518315827743192 8.698369652400036 -4.650536178353616 9.064574938015546 -4.660657429966105 C 9.064574938015546 -4.660657429966105 9.298467861642337 -4.6861445817539185 9.288346610029848 -4.467433535545861 C 9.288346610029848 -4.467433535545861 9.289266723812801 -4.40863826481513 9.262399401350558 -4.334201059774188 Z" fill="#ff0000" transform="matrix(1,0,0,1,0,0)" fill-rule="nonzero"></path></g><g clip-path="url(#b4b85c17f-eaaa-4a0b-8272-aebd88ee70158323d619-a97f-405d-951a-021124fef76b)"><path d=" M 5.457084829189587 -4.836767208023413 L 5.5459678206228995 -5.091730737279839 C 5.5459678206228995 -5.091730737279839 5.960939136734948 -5.654840372447408 6.577415371313822 -5.607362501247005 C 6.577415371313822 -5.607362501247005 6.298896929213784 -5.263607991935562 6.221791394202278 -4.866394871834517 Z" fill="#ff0000" transform="matrix(1,0,0,1,0,0)" fill-rule="nonzero"></path></g><g clip-path="url(#b4b85c17f-eaaa-4a0b-8272-aebd88ee70158323d619-a97f-405d-951a-021124fef76b)"><path d=" M 6.322543853435691 -4.878356351012913 C 6.322543853435691 -4.878356351012913 6.458904716069406 -5.316974591346868 6.6960180379365335 -5.613343240836204 C 6.6960180379365335 -5.613343240836204 7.312494272515408 -5.708298983237009 7.490352266760328 -5.334824798736166 L 7.608862922004744 -5.008828485435726 C 7.608862922004744 -5.008828485435726 7.632601857604946 -4.872375611423715 7.30651353292621 -4.890225818813014 Z" fill="#ff0000" transform="matrix(1,0,0,1,0,0)" fill-rule="nonzero"></path></g><g clip-path="url(#b4b85c17f-eaaa-4a0b-8272-aebd88ee70158323d619-a97f-405d-951a-021124fef76b)"><path d=" M 7.151382349120242 -3.18580704726987 C 7.151382349120242 -2.965531807630792 7.235572760260492 -2.786845710981214 7.339361594977651 -2.786845710981214 C 7.443242441073107 -2.786845710981214 7.527432852213355 -2.965531807630792 7.527432852213355 -3.18580704726987 C 7.527432852213355 -3.406082286908948 7.443242441073107 -3.5847683835585267 7.339361594977651 -3.5847683835585267 C 7.235572760260492 -3.5847683835585267 7.151382349120242 -3.406082286908948 7.151382349120242 -3.18580704726987" fill="#ff0000" transform="matrix(1,0,0,1,0,0)" fill-rule="nonzero"></path></g><g clip-path="url(#b4b85c17f-eaaa-4a0b-8272-aebd88ee70158323d619-a97f-405d-951a-021124fef76b)"><path d=" M 5.427181131243597 -5.024930476637413 L 5.33305349124745 -4.886361340924609 L 5.196968662748621 -4.9086280944720855 C 5.196968662748621 -4.9086280944720855 5.2258602355333625 -5.085749997690643 5.427181131243597 -5.024930476637413" fill="#ff0000" transform="matrix(1,0,0,1,0,0)" fill-rule="nonzero"></path></g><g clip-path="url(#b4b85c17f-eaaa-4a0b-8272-aebd88ee70158323d619-a97f-405d-951a-021124fef76b)"><path d=" M 4.751909625933992 -3.266961082926373 L 4.762306911681367 -3.2567478199355886 L 6.406090184927873 -2.7032993794890325 L 6.317391216251151 -2.6930861164982485 L 4.728998792738449 -3.193628014424976 Z" fill="#ff0000" transform="matrix(1,0,0,1,0,0)" fill-rule="nonzero"></path></g><g clip-path="url(#b4b85c17f-eaaa-4a0b-8272-aebd88ee70158323d619-a97f-405d-951a-021124fef76b)"><path d=" M 5.00843734862144 -3.2944724850366836 L 5.018834634368815 -3.284259222045899 L 6.662617907615321 -2.7308107815993425 L 6.573918938938598 -2.7205975186085585 L 4.985526515425897 -3.2211394165352862 Z" fill="#ff0000" transform="matrix(1,0,0,1,0,0)" fill-rule="nonzero"></path></g><g clip-path="url(#b4b85c17f-eaaa-4a0b-8272-aebd88ee70158323d619-a97f-405d-951a-021124fef76b)"><path d=" M 5.037604955541068 -3.4757349002785314 L 5.2870478020997735 -3.467085830718768 L 6.1191987074029575 -3.1819425693814654 L 6.030499738726236 -3.1717293063906804 L 5.25364767177856 -3.4039660252081547 Z" fill="#ff0000" transform="matrix(1,0,0,1,0,0)" fill-rule="nonzero"></path></g><g clip-path="url(#b4b85c17f-eaaa-4a0b-8272-aebd88ee70158323d619-a97f-405d-951a-021124fef76b)"><path d=" M 8.174088818873106 -3.710363914931685 L 8.174088818873106 -3.5924053279570405 L 8.472941775576416 -3.576671382268535 L 8.45720782988791 -3.6946299692431794 Z" fill="#ff0000" transform="matrix(1,0,0,1,0,0)" fill-rule="nonzero"></path></g><g clip-path="url(#b4b85c17f-eaaa-4a0b-8272-aebd88ee70158323d619-a97f-405d-951a-021124fef76b)"><path d=" M 6.25638767244133 -4.676299364276315 L 7.195639822080308 -4.6537565765939535 C 7.195639822080308 -4.6537565765939535 7.026890954286628 -4.4457188502681575 6.835691310188881 -3.888865988824673 C 6.835691310188881 -3.888865988824673 6.7877533820970015 -4.0013959044798915 7.069860267950559 -4.58925660040891 Z" fill="#ff0000" transform="matrix(1,0,0,1,0,0)" fill-rule="nonzero"></path></g><g clip-path="url(#b4b85c17f-eaaa-4a0b-8272-aebd88ee70158323d619-a97f-405d-951a-021124fef76b)"><path d=" M 5.214082779111556 -4.676299364276315 L 6.1533349287505335 -4.6537565765939535 C 6.1533349287505335 -4.6537565765939535 5.984586060956854 -4.4457188502681575 5.793386416859108 -3.888865988824673 C 5.793386416859108 -3.888865988824673 5.745448488767227 -4.0013959044798915 6.027555374620785 -4.58925660040891 Z" fill="#ff0000" transform="matrix(1,0,0,1,0,0)" fill-rule="nonzero"></path></g><g clip-path="url(#b4b85c17f-eaaa-4a0b-8272-aebd88ee70158323d619-a97f-405d-951a-021124fef76b)"><path d=" M 7.286271029701233 -3.157927599646378 C 7.286271029701233 -3.0163220884498276 7.345434345945145 -2.9014918883372256 7.418491380311656 -2.9014918883372256 C 7.491456403299873 -2.9014918883372256 7.550619719543786 -3.0163220884498276 7.550619719543786 -3.157927599646378 C 7.550619719543786 -3.299625122221223 7.491456403299873 -3.4144553223338256 7.418491380311656 -3.4144553223338256 C 7.345434345945145 -3.4144553223338256 7.286271029701233 -3.299625122221223 7.286271029701233 -3.157927599646378" fill="#ff0000" transform="matrix(1,0,0,1,0,0)" fill-rule="nonzero"></path></g><g clip-path="url(#b4b85c17f-eaaa-4a0b-8272-aebd88ee70158323d619-a97f-405d-951a-021124fef76b)"><path d=" M 9.061630573910094 -5.5746984619521545 C 8.415986732411593 -5.6130672067013165 7.716332211853718 -5.572674211629656 7.716332211853718 -5.572674211629656 L 8.321675069658854 -4.9547257949980565 L 9.309509227037777 -5.007264292004704 C 9.264515663051348 -5.282010267594632 9.139380188569667 -5.476706344067602 9.061630573910094 -5.5746984619521545" fill="#ff0000" transform="matrix(1,0,0,1,0,0)" fill-rule="nonzero"></path></g><g clip-path="url(#b4b85c17f-eaaa-4a0b-8272-aebd88ee70158323d619-a97f-405d-951a-021124fef76b)"><path d=" M 4.692562286933488 -3.750204841733573 C 4.692562286933488 -3.596361817223741 4.73967211262071 -3.4716863996335356 4.797823303703373 -3.4716863996335356 C 4.8558824834077425 -3.4716863996335356 4.902992309094964 -3.596361817223741 4.902992309094964 -3.750204841733573 C 4.902992309094964 -3.9040478662434053 4.8558824834077425 -4.02872328383361 4.797823303703373 -4.02872328383361 C 4.73967211262071 -4.02872328383361 4.692562286933488 -3.9040478662434053 4.692562286933488 -3.750204841733573" fill="#ff0000" transform="matrix(1,0,0,1,0,0)" fill-rule="nonzero"></path></g><g clip-path="url(#b4b85c17f-eaaa-4a0b-8272-aebd88ee70158323d619-a97f-405d-951a-021124fef76b)"><path d=" M 3.506351597949781 -2.864043257371016 C 4.022259396051833 -1.5946542824083076 5.8763806800815175 -1.1492272000804977 7.6475997122670885 -1.8691242238633494 C 9.41881874445266 -2.589113259024497 10.436372577020983 -4.201796686407173 9.920372767540636 -5.471277672748176 C 9.40437295806029 -6.740666647710884 7.550251674030604 -7.186093730038695 5.779032641845033 -6.466196706255843 C 4.007813609659462 -5.746207671094695 2.9903517884694337 -4.133524243712019 3.506351597949781 -2.864043257371016" fill="#dce2e3" transform="matrix(1,0,0,1,0,0)" fill-rule="nonzero"></path></g><g clip-path="url(#b4b85c17f-eaaa-4a0b-8272-aebd88ee70158323d619-a97f-405d-951a-021124fef76b)"><path d=" M 3.726166780697382 -2.957434806340801 C 4.202969743023909 -1.7845657672099193 5.924134585416806 -1.3763112817134315 7.570678200012172 -2.045694058812135 C 9.217221814607537 -2.714892813154247 10.165583090697755 -4.2082374828878475 9.688872139749524 -5.3811065220187295 C 9.212069177422997 -6.553975561149611 7.490812323651805 -6.962138035267802 5.844176697678144 -6.292847269547395 C 4.197725094461073 -5.623648515205283 3.2494558297491514 -4.130303845471682 3.726166780697382 -2.957434806340801" fill="#ff0000" transform="matrix(1,0,0,1,0,0)" fill-rule="nonzero"></path></g><g clip-path="url(#b4b85c17f-eaaa-4a0b-8272-aebd88ee70158323d619-a97f-405d-951a-021124fef76b)"><path d=" M 4.8943432395352 -3.802191270470449 C 4.8943432395352 -3.6412633698318744 4.955806840236497 -3.510791235409062 5.031716227330164 -3.510791235409062 C 5.107533603045536 -3.510791235409062 5.168997203746833 -3.6412633698318744 5.168997203746833 -3.802191270470449 C 5.168997203746833 -3.9631191711090237 5.107533603045536 -4.093591305531836 5.031716227330164 -4.093591305531836 C 4.955806840236497 -4.093591305531836 4.8943432395352 -3.9631191711090237 4.8943432395352 -3.802191270470449" fill="#dce2e3" transform="matrix(1,0,0,1,0,0)" fill-rule="nonzero"></path></g><g clip-path="url(#b4b85c17f-eaaa-4a0b-8272-aebd88ee70158323d619-a97f-405d-951a-021124fef76b)"><path d=" M 9.628512675587771 -5.305657191816538 C 9.184005707042914 -6.399212422856825 7.573070495847851 -6.777287176272435 6.03059175010453 -6.150229633189595 C 4.488020992982914 -5.523264101485051 3.597994930731953 -4.128555629284071 4.042409887898514 -3.0350924096220795 C 4.486916856443371 -1.9416291899600884 6.097668044881844 -1.5634624251661826 7.640238802003458 -2.1904279568707263 C 9.18271754774678 -2.817485499953566 10.072927632754332 -4.212193972154547 9.628512675587771 -5.305657191816538" fill="#dce2e3" transform="matrix(1,0,0,1,0,0)" fill-rule="nonzero"></path></g><g clip-path="url(#b4b85c17f-eaaa-4a0b-8272-aebd88ee70158323d619-a97f-405d-951a-021124fef76b)"><path d=" M 9.19559914070813 -5.724400974438696 C 9.19559914070813 -5.724400974438696 7.565341540071041 -5.89167766017965 6.50040184768061 -5.6815236721530615 C 6.50040184768061 -5.6815236721530615 6.1851708656407265 -5.667445931273872 5.687665343197746 -5.114089502205611 L 5.673771625075147 -5.142060961207399 C 5.673771625075147 -5.142060961207399 5.316399431775991 -5.142152972585694 5.330385161276884 -5.016005372942764 L 5.316399431775991 -4.931906973180809 L 5.49149708467205 -4.868787167670197 C 5.49149708467205 -4.868787167670197 5.365441496407415 -4.889765761921537 4.938048644225494 -4.721660973775925 C 4.938048644225494 -4.721660973775925 4.636159312038435 -4.644647450142713 4.636159312038435 -4.336317321474981 C 4.636159312038435 -4.336317321474981 4.633122936554688 -4.022834555622708 4.654193542184325 -3.798694838095226 L 4.508907575855961 -3.7968546105293184 L 4.223580291762067 -3.7968546105293184 C 4.223580291762067 -3.7968546105293184 4.073785767897231 -5.270600856686009 6.338277799124197 -6.132747471313479 C 6.338277799124197 -6.132747471313479 8.213469688783517 -6.779495449351525 9.19559914070813 -5.724400974438696" fill="#ff0000" transform="matrix(1,0,0,1,0,0)" fill-rule="nonzero"></path></g><g clip-path="url(#b4b85c17f-eaaa-4a0b-8272-aebd88ee70158323d619-a97f-405d-951a-021124fef76b)"><path d=" M 5.0555471743086615 -4.349842994084398 C 5.0555471743086615 -4.349842994084398 4.726054428632998 -4.409834412732969 4.731943156843901 -3.7447761704141476 C 4.731943156843901 -3.7447761704141476 4.7200736890438 -3.1815745238682838 5.097504362811343 -3.2054974822250757 L 5.344370890777779 -3.2154347110809742 C 5.344370890777779 -3.2154347110809742 5.474198945552524 -3.328424683627669 5.519560555052133 -3.488616493239881 L 5.391112670951819 -3.4930330393980578 C 5.391112670951819 -3.4930330393980578 5.27720258462217 -3.4450951113061783 5.24729888667618 -3.7267419402682584 C 5.24729888667618 -3.7267419402682584 5.187399479405904 -4.104264625414096 5.0555471743086615 -4.349842994084398" fill="#ff0000" transform="matrix(1,0,0,1,0,0)" fill-rule="nonzero"></path></g><g clip-path="url(#b4b85c17f-eaaa-4a0b-8272-aebd88ee70158323d619-a97f-405d-951a-021124fef76b)"><path d=" M 4.797915315081669 -3.780660607949336 C 4.797915315081669 -3.5522883670202665 4.864991609858983 -3.367253485268309 4.947709838946507 -3.367253485268309 C 5.03042806803403 -3.367253485268309 5.097504362811343 -3.5522883670202665 5.097504362811343 -3.780660607949336 C 5.097504362811343 -4.008940837500109 5.03042806803403 -4.194067730630364 4.947709838946507 -4.194067730630364 C 4.864991609858983 -4.194067730630364 4.797915315081669 -4.008940837500109 4.797915315081669 -3.780660607949336" fill="#dce2e3" transform="matrix(1,0,0,1,0,0)" fill-rule="nonzero"></path></g><g clip-path="url(#b4b85c17f-eaaa-4a0b-8272-aebd88ee70158323d619-a97f-405d-951a-021124fef76b)"><path d=" M 8.035703705916893 -3.249202886915369 C 8.035703705916893 -3.249202886915369 7.862814326099922 -3.8144287837837307 7.736482703700401 -3.9672596831323137 C 7.736482703700401 -3.9672596831323137 7.244497863955141 -4.047033548114387 7.1846904680631605 -3.4752748433870546 C 7.1846904680631605 -3.4752748433870546 7.0450171958108125 -2.6109199556804956 7.610243092679174 -2.497929983133801 L 8.009112417589536 -2.5112716329866274 C 8.009112417589536 -2.5112716329866274 8.28174213147867 -2.6042951364432305 8.32158305828056 -2.950073896077172 C 8.32158305828056 -2.950073896077172 8.082169451956048 -2.9566987153144373 8.035703705916893 -3.249202886915369 M 7.5480434009515145 -2.6775361935663327 C 7.3700013839500045 -2.6815846942113284 7.231156214102315 -2.9288192676909452 7.238057067474466 -3.229880497473345 C 7.244773898090028 -3.530941727255744 7.3945684219548635 -3.771735504254686 7.572610438956374 -3.7675949922313956 C 7.750652455957885 -3.7637305143429907 7.889497625805575 -3.5164039294850777 7.882688783811719 -3.2154347110809742 C 7.875971953196157 -2.9143734812985747 7.726085417953025 -2.673579704299632 7.5480434009515145 -2.6775361935663327" fill="#ff0000" transform="matrix(1,0,0,1,0,0)" fill-rule="nonzero"></path></g><g clip-path="url(#b4b85c17f-eaaa-4a0b-8272-aebd88ee70158323d619-a97f-405d-951a-021124fef76b)"><path d=" M 9.369776679821236 -4.355087642647233 L 8.749251944597365 -4.339905765228499 L 8.77473909638518 -4.543342922639528 C 8.77473909638518 -4.543342922639528 8.922233335792633 -4.675563273249953 9.288438621408142 -4.685684524862442 C 9.288438621408142 -4.685684524862442 9.522331545034934 -4.711171676650254 9.512210293422443 -4.4924606304421975 C 9.512210293422443 -4.4924606304421975 9.513130407205399 -4.4336653597114655 9.486263084743156 -4.359228154670524 Z" fill="#ff0000" transform="matrix(1,0,0,1,0,0)" fill-rule="nonzero"></path></g><g clip-path="url(#b4b85c17f-eaaa-4a0b-8272-aebd88ee70158323d619-a97f-405d-951a-021124fef76b)"><path d=" M 5.68104052396048 -4.861978325676341 L 5.769923515393792 -5.116941854932767 C 5.769923515393792 -5.116941854932767 6.18489483150584 -5.680051490100336 6.801371066084714 -5.632573618899933 C 6.801371066084714 -5.632573618899933 6.522852623984677 -5.2888191095884896 6.445747088973169 -4.891605989487444 Z" fill="#ff0000" transform="matrix(1,0,0,1,0,0)" fill-rule="nonzero"></path></g><g clip-path="url(#b4b85c17f-eaaa-4a0b-8272-aebd88ee70158323d619-a97f-405d-951a-021124fef76b)"><path d=" M 6.546407536828288 -4.903475457287545 C 6.546407536828288 -4.903475457287545 6.682768399462003 -5.342093697621499 6.919881721329132 -5.638462347110836 C 6.919881721329132 -5.638462347110836 7.536357955908005 -5.733418089511641 7.7142159501529255 -5.359943905010798 L 7.832726605397341 -5.0339475917103575 C 7.832726605397341 -5.0339475917103575 7.856465540997543 -4.897494717698347 7.530377216318807 -4.915344925087647 Z" fill="#ff0000" transform="matrix(1,0,0,1,0,0)" fill-rule="nonzero"></path></g><g clip-path="url(#b4b85c17f-eaaa-4a0b-8272-aebd88ee70158323d619-a97f-405d-951a-021124fef76b)"><path d=" M 7.37524603251284 -3.2109261535445017 C 7.37524603251284 -2.9906509139054234 7.4594364436530896 -2.8119648172558454 7.563225278370249 -2.8119648172558454 C 7.667106124465704 -2.8119648172558454 7.751296535605952 -2.9906509139054234 7.751296535605952 -3.2109261535445017 C 7.751296535605952 -3.43120139318358 7.667106124465704 -3.6098874898331585 7.563225278370249 -3.6098874898331585 C 7.4594364436530896 -3.6098874898331585 7.37524603251284 -3.43120139318358 7.37524603251284 -3.2109261535445017" fill="#ff0000" transform="matrix(1,0,0,1,0,0)" fill-rule="nonzero"></path></g><g clip-path="url(#b4b85c17f-eaaa-4a0b-8272-aebd88ee70158323d619-a97f-405d-951a-021124fef76b)"><path d=" M 5.65113682601449 -5.050049582912044 L 5.557009186018343 -4.91148044719924 L 5.420924357519514 -4.9337472007467165 C 5.420924357519514 -4.9337472007467165 5.449815930304255 -5.110869103965274 5.65113682601449 -5.050049582912044" fill="#ff0000" transform="matrix(1,0,0,1,0,0)" fill-rule="nonzero"></path></g><g clip-path="url(#b4b85c17f-eaaa-4a0b-8272-aebd88ee70158323d619-a97f-405d-951a-021124fef76b)"><path d=" M 4.9757733093265895 -3.292080189201004 L 4.986170595073965 -3.2818669262102196 L 6.62995386832047 -2.7284184857636635 L 6.541254899643748 -2.7182052227728795 L 4.952862476131046 -3.2187471206996072 Z" fill="#ff0000" transform="matrix(1,0,0,1,0,0)" fill-rule="nonzero"></path></g><g clip-path="url(#b4b85c17f-eaaa-4a0b-8272-aebd88ee70158323d619-a97f-405d-951a-021124fef76b)"><path d=" M 5.2323930433923325 -3.31949957993302 L 5.242790329139707 -3.3092863169422353 L 6.886573602386212 -2.7558378764956792 L 6.79787463370949 -2.745624613504895 L 5.209482210196788 -3.246166511431623 Z" fill="#ff0000" transform="matrix(1,0,0,1,0,0)" fill-rule="nonzero"></path></g><g clip-path="url(#b4b85c17f-eaaa-4a0b-8272-aebd88ee70158323d619-a97f-405d-951a-021124fef76b)"><path d=" M 5.261468638933664 -3.5007619951748676 L 5.51091148549237 -3.4921129256151042 L 6.343062390795555 -3.2069696642778016 L 6.254363422118832 -3.196756401287017 L 5.477511355171156 -3.428993120104492 Z" fill="#ff0000" transform="matrix(1,0,0,1,0,0)" fill-rule="nonzero"></path></g><g clip-path="url(#b4b85c17f-eaaa-4a0b-8272-aebd88ee70158323d619-a97f-405d-951a-021124fef76b)"><path d=" M 8.398044513643999 -3.735483021206317 L 8.398044513643999 -3.617524434231673 L 8.69689747034731 -3.6017904885431675 L 8.681163524658803 -3.7197490755178118 Z" fill="#ff0000" transform="matrix(1,0,0,1,0,0)" fill-rule="nonzero"></path></g><g clip-path="url(#b4b85c17f-eaaa-4a0b-8272-aebd88ee70158323d619-a97f-405d-951a-021124fef76b)"><path d=" M 6.480251355833928 -4.701418470550946 L 7.419503505472905 -4.6788756828685845 C 7.419503505472905 -4.6788756828685845 7.250754637679226 -4.4708379565427885 7.059554993581479 -3.9139850950993043 C 7.059554993581479 -3.9139850950993043 7.011617065489599 -4.0265150107545225 7.293723951343155 -4.614375706683541 Z" fill="#ff0000" transform="matrix(1,0,0,1,0,0)" fill-rule="nonzero"></path></g><g clip-path="url(#b4b85c17f-eaaa-4a0b-8272-aebd88ee70158323d619-a97f-405d-951a-021124fef76b)"><path d=" M 7.510226724472124 -3.1830467059210097 C 7.510226724472124 -3.041441194724459 7.569390040716037 -2.926610994611857 7.642447075082549 -2.926610994611857 C 7.715412098070765 -2.926610994611857 7.774575414314677 -3.041441194724459 7.774575414314677 -3.1830467059210097 C 7.774575414314677 -3.324744228495855 7.715412098070765 -3.4395744286084575 7.642447075082549 -3.4395744286084575 C 7.569390040716037 -3.4395744286084575 7.510226724472124 -3.324744228495855 7.510226724472124 -3.1830467059210097" fill="#dce2e3" transform="matrix(1,0,0,1,0,0)" fill-rule="nonzero"></path></g><g clip-path="url(#b4b85c17f-eaaa-4a0b-8272-aebd88ee70158323d619-a97f-405d-951a-021124fef76b)"><path d=" M 9.285494257302691 -5.599817568226786 C 8.63985041580419 -5.638186312975949 7.940195895246316 -5.597793317904289 7.940195895246316 -5.597793317904289 L 8.545538753051453 -4.979844901272688 L 9.533372910430375 -5.032383398279336 C 9.488379346443947 -5.307129373869264 9.363243871962265 -5.501825450342234 9.285494257302691 -5.599817568226786" fill="#ff0000" transform="matrix(1,0,0,1,0,0)" fill-rule="nonzero"></path></g><g clip-path="url(#b4b85c17f-eaaa-4a0b-8272-aebd88ee70158323d619-a97f-405d-951a-021124fef76b)"><path d=" M 4.9164259703260855 -3.7753239480082055 C 4.9164259703260855 -3.621480923498373 4.963535796013307 -3.496805505908168 5.021686987095971 -3.496805505908168 C 5.07974616680034 -3.496805505908168 5.126855992487561 -3.621480923498373 5.126855992487561 -3.7753239480082055 C 5.126855992487561 -3.9291669725180376 5.07974616680034 -4.053842390108243 5.021686987095971 -4.053842390108243 C 4.963535796013307 -4.053842390108243 4.9164259703260855 -3.9291669725180376 4.9164259703260855 -3.7753239480082055" fill="#ff0000" transform="matrix(1,0,0,1,0,0)" fill-rule="nonzero"></path></g><g clip-path="url(#b4b85c17f-eaaa-4a0b-8272-aebd88ee70158323d619-a97f-405d-951a-021124fef76b)"><path d=" M 11.20982022297173 -5.1382884946972895 C 11.197858743793335 -5.134700050943771 11.204023506139125 -5.132951834756159 11.210280279863207 -5.132951834756159 C 11.216353030830701 -5.132951834756159 11.222425781798195 -5.134700050943771 11.20982022297173 -5.1382884946972895" fill="#bab9b4" transform="matrix(1,0,0,1,0,0)" fill-rule="nonzero"></path></g><g clip-path="url(#b4b85c17f-eaaa-4a0b-8272-aebd88ee70158323d619-a97f-405d-951a-021124fef76b)"><path d=" M 10.880787534187544 -5.185950388654283 C 10.876293770183375 -5.1857492149433515 10.87191129535022 -5.184488071106472 10.867997952604489 -5.182269933522469 C 10.823096399996356 -5.166351965077373 10.908943015945923 -5.1442692342864875 10.818127785568407 -5.1442692342864875 C 10.808098545334213 -5.129363391002641 10.805062169850467 -5.107372671590051 10.789052190027075 -5.095319181033359 C 10.745622819471667 -5.064127323791234 10.785923803165032 -5.0435167750530745 10.83174546955612 -5.0435167750530745 C 10.856680553074161 -5.0435167750530745 10.883179830023222 -5.0495895260205685 10.899005787090024 -5.0632992213865755 C 10.908943015945923 -5.109304910534253 10.884007932427881 -5.119334150768447 10.874070703571983 -5.1442692342864875 L 10.899005787090024 -5.1442692342864875 C 10.902226185330361 -5.168928283669643 10.895325331958208 -5.185950388654283 10.880787534187544 -5.185950388654283" fill="#bab9b4" transform="matrix(1,0,0,1,0,0)" fill-rule="nonzero"></path></g><g clip-path="url(#b4b85c17f-eaaa-4a0b-8272-aebd88ee70158323d619-a97f-405d-951a-021124fef76b)"><path d=" M 10.800093555422519 -4.746504045915671 C 10.79034034932321 -4.7377629649776125 10.798713384748087 -4.715496211430136 10.816931637650567 -4.715496211430136 L 10.818127785568407 -4.715496211430136 C 10.820060024512609 -4.723501201341832 10.827144900641352 -4.727549701986828 10.82502863894056 -4.740523306326473 C 10.820484249248304 -4.739725610405522 10.815809885040341 -4.740786459020095 10.812055034600915 -4.743467670431924 C 10.808098545334213 -4.744571806971468 10.805062169850467 -4.746504045915671 10.800093555422519 -4.746504045915671" fill="#bab9b4" transform="matrix(1,0,0,1,0,0)" fill-rule="nonzero"></path></g><g clip-path="url(#b4b85c17f-eaaa-4a0b-8272-aebd88ee70158323d619-a97f-405d-951a-021124fef76b)"><path d=" M 7.495964960836345 -1.4063990024160118 L 7.470937865940007 -1.4063990024160118 C 7.470554652217432 -1.4022425706403823 7.471910207350298 -1.3981130705645821 7.474682219673686 -1.3949923774457993 C 7.477454231997075 -1.3918716843270156 7.481395054903054 -1.3900385952899024 7.485567675088969 -1.3899289657011442 C 7.49210048294794 -1.3899289657011442 7.497805188402252 -1.3948975801290935 7.495964960836345 -1.4063990024160118" fill="#bab9b4" transform="matrix(1,0,0,1,0,0)" fill-rule="nonzero"></path></g><g clip-path="url(#b4b85c17f-eaaa-4a0b-8272-aebd88ee70158323d619-a97f-405d-951a-021124fef76b)"><path d=" M 6.074573188929711 -1.6129645466890832 C 6.046877764062809 -1.6129645466890832 6.022770782949426 -1.5995308854579617 6.022770782949426 -1.5712833923212877 C 6.022770782949426 -1.5322705679240576 6.059667345645863 -1.5462562974249519 6.091687305292647 -1.5372391823520068 C 6.096655919720595 -1.5692591419987902 6.098772181421388 -1.5791963708546888 6.085706565703449 -1.612320467041016 C 6.082012241968628 -1.6127641947976077 6.078294036224343 -1.612979297609261 6.074573188929711 -1.6129645466890832" fill="#bab9b4" transform="matrix(1,0,0,1,0,0)" fill-rule="nonzero"></path></g><g clip-path="url(#b4b85c17f-eaaa-4a0b-8272-aebd88ee70158323d619-a97f-405d-951a-021124fef76b)"><path d=" M 5.68104052396048 -1.4812962643484306 C 5.6791082850162775 -1.466574443821175 5.682328683256615 -1.4561771580737997 5.696222401379214 -1.4561771580737997 C 5.697418549297053 -1.4561771580737997 5.698614697214892 -1.4561771580737997 5.699994867889323 -1.4563611808303891 C 5.701006993050572 -1.4722791492754865 5.68996562765513 -1.4763276499204814 5.68104052396048 -1.4812962643484306" fill="#bab9b4" transform="matrix(1,0,0,1,0,0)" fill-rule="nonzero"></path></g><g clip-path="url(#b4b85c17f-eaaa-4a0b-8272-aebd88ee70158323d619-a97f-405d-951a-021124fef76b)"><path d=" M 4.922498721293579 -0.9276638011452842 L 4.909525116953935 -0.9276638011452842 L 4.909525116953935 -0.9156103105885931 L 4.922498721293579 -0.9156103105885931 Z" fill="#bab9b4" transform="matrix(1,0,0,1,0,0)" fill-rule="nonzero"></path></g><g clip-path="url(#b4b85c17f-eaaa-4a0b-8272-aebd88ee70158323d619-a97f-405d-951a-021124fef76b)"><path d=" M 1.9520953957846552 -0.8218507161056277 L 1.9509912592451109 -0.8217587047273316 C 1.9500711454621573 -0.8146738285985897 1.9480468951396597 -0.8146738285985897 1.9470347699784105 -0.8146738285985897 L 1.9462066675737526 -0.8146738285985897 C 1.944826496899322 -0.8146738285985897 1.9440904058729593 -0.8140297489505217 1.9440904058729593 -0.8037244745814425 C 1.9456833385088848 -0.8023447837983069 1.947690682689374 -0.801535370822303 1.9497951113272713 -0.8014241901240577 C 1.954395680242039 -0.8014241901240577 1.9573400443474904 -0.8065768273085983 1.9580761353738532 -0.8117294644931388 C 1.9580761353738532 -0.8163300334079064 1.9563279191862415 -0.8218507161056277 1.9520953957846552 -0.8218507161056277" fill="#bab9b4" transform="matrix(1,0,0,1,0,0)" fill-rule="nonzero"></path></g><g clip-path="url(#b4b85c17f-eaaa-4a0b-8272-aebd88ee70158323d619-a97f-405d-951a-021124fef76b)"><path d=" M 1.4773166837806269 -0.26205349055669114 L 1.4652631932239353 -0.26205349055669114 L 1.4652631932239353 -0.25 L 1.4773166837806269 -0.25 Z" fill="#bab9b4" transform="matrix(1,0,0,1,0,0)" fill-rule="nonzero"></path></g><g clip-path="url(#b4b85c17f-eaaa-4a0b-8272-aebd88ee70158323d619-a97f-405d-951a-021124fef76b)"><path d=" M 0.8127184983532826 -0.35590509641795265 C 0.8002049509051143 -0.3518565957729569 0.8061856904943123 -0.34992435682875467 0.8123504528401011 -0.34992435682875467 C 0.8184232038075945 -0.34992435682875467 0.8247719889099739 -0.3518565957729569 0.8127184983532826 -0.35590509641795265" fill="#bab9b4" transform="matrix(1,0,0,1,0,0)" fill-rule="nonzero"></path></g><g clip-path="url(#b4b85c17f-eaaa-4a0b-8272-aebd88ee70158323d619-a97f-405d-951a-021124fef76b)"><path d=" M 4.903912422877918 -1.0853713035435213 L 4.880909578304078 -1.0865674514613612 L 4.8821977376002135 -1.1096623074134948 L 4.905200582174052 -1.1083741481173606 Z" fill="#dce2e3" transform="matrix(1,0,0,1,0,0)" fill-rule="nonzero"></path></g><g clip-path="url(#b4b85c17f-eaaa-4a0b-8272-aebd88ee70158323d619-a97f-405d-951a-021124fef76b)"><path d=" M 5.081218348853065 -1.224308484769507 L 5.057663436009455 -1.2221002116904183 L 5.059411652197066 -1.2486915000177756 L 5.080482257826702 -1.2458391472906198 Z" fill="#dce2e3" transform="matrix(1,0,0,1,0,0)" fill-rule="nonzero"></path></g><g clip-path="url(#b4b85c17f-eaaa-4a0b-8272-aebd88ee70158323d619-a97f-405d-951a-021124fef76b)"><path d=" M 4.927927392613005 -1.2392143280533539 C 4.903176331851555 -1.2336016339773384 4.888914568215775 -1.2478633976131173 4.903544377364736 -1.2709582535652517 L 4.930043654313798 -1.2692100373776398 C 4.931607847744819 -1.2589967743868558 4.92268274405017 -1.2499796593139108 4.927927392613005 -1.2392143280533539" fill="#dce2e3" transform="matrix(1,0,0,1,0,0)" fill-rule="nonzero"></path></g><g clip-path="url(#b4b85c17f-eaaa-4a0b-8272-aebd88ee70158323d619-a97f-405d-951a-021124fef76b)"><path d=" M 5.283827403859436 -1.515156451561122 L 5.257420138288669 -1.516904667748734 L 5.2570520927754885 -1.5419317626450697 L 5.28511556315557 -1.5382513075132556 Z" fill="#dce2e3" transform="matrix(1,0,0,1,0,0)" fill-rule="nonzero"></path></g><g clip-path="url(#b4b85c17f-eaaa-4a0b-8272-aebd88ee70158323d619-a97f-405d-951a-021124fef76b)"><path d=" M 4.747585091154111 -1.1042336360940697 L 4.721177825583344 -1.1059818522816816 L 4.7209017914484575 -1.1310089471780174 L 4.74740106839752 -1.1292607309904064 Z" fill="#dce2e3" transform="matrix(1,0,0,1,0,0)" fill-rule="nonzero"></path></g><g clip-path="url(#b4b85c17f-eaaa-4a0b-8272-aebd88ee70158323d619-a97f-405d-951a-021124fef76b)"><path d=" M 5.103577113778836 -1.380267770980132 L 5.078550018882499 -1.3798997254669505 C 5.074961575128981 -1.4029025700407898 5.086370986037605 -1.414956060597481 5.107901648558718 -1.39931412628727 Z" fill="#dce2e3" transform="matrix(1,0,0,1,0,0)" fill-rule="nonzero"></path></g><g clip-path="url(#b4b85c17f-eaaa-4a0b-8272-aebd88ee70158323d619-a97f-405d-951a-021124fef76b)"><path d=" M 4.94881397548605 -1.3971058532081821 C 4.938968758008447 -1.3945295346159128 4.930411699826979 -1.4026265359059034 4.920198436836195 -1.3971978645864773 C 4.914769765516769 -1.4086992868733965 4.9212105619974436 -1.4185445043509999 4.920934527862557 -1.4293098356115568 C 4.9313318136099324 -1.4321621883387126 4.940532951439468 -1.4252613349665602 4.951022248565138 -1.4271015625324672 C 4.951850350969797 -1.416796288163388 4.94504150897594 -1.4076871617121478 4.94881397548605 -1.3971058532081821" fill="#dce2e3" transform="matrix(1,0,0,1,0,0)" fill-rule="nonzero"></path></g><g clip-path="url(#b4b85c17f-eaaa-4a0b-8272-aebd88ee70158323d619-a97f-405d-951a-021124fef76b)"><path d=" M 4.768471674027156 -1.262125161248898 L 4.741880385699798 -1.2638733774365098 L 4.741696362943207 -1.2888084609545496 L 4.766723457839545 -1.289084495089436 C 4.775280516021012 -1.2790552548552432 4.765435298543409 -1.2713262990784333 4.768471674027156 -1.262125161248898" fill="#dce2e3" transform="matrix(1,0,0,1,0,0)" fill-rule="nonzero"></path></g><g clip-path="url(#b4b85c17f-eaaa-4a0b-8272-aebd88ee70158323d619-a97f-405d-951a-021124fef76b)"><path d=" M 4.9696085469808 -1.5549053669847153 C 4.958199136072176 -1.549936752556765 4.949090009620937 -1.5622662772483427 4.937496575955722 -1.5555494466327824 C 4.940256917304582 -1.5633704137878874 4.941821110735604 -1.574503790561625 4.941729099357309 -1.587109349388089 L 4.969700558359096 -1.5834288942562749 Z" fill="#dce2e3" transform="matrix(1,0,0,1,0,0)" fill-rule="nonzero"></path></g><g clip-path="url(#b4b85c17f-eaaa-4a0b-8272-aebd88ee70158323d619-a97f-405d-951a-021124fef76b)"><path d=" M 4.789266245521906 -1.4200166864037254 L 4.762674957194549 -1.421672891213042 L 4.764515184760456 -1.4481721681621034 C 4.777488789100101 -1.4536008394815303 4.778132868748169 -1.4420994171946102 4.789450268278497 -1.448540213675285 Z" fill="#dce2e3" transform="matrix(1,0,0,1,0,0)" fill-rule="nonzero"></path></g><g clip-path="url(#b4b85c17f-eaaa-4a0b-8272-aebd88ee70158323d619-a97f-405d-951a-021124fef76b)"><path d=" M 4.598526658315636 -1.2863241537405754 L 4.598434646937341 -1.2989297125670394 L 4.605151477552901 -1.281907607582399 Z" fill="#dce2e3" transform="matrix(1,0,0,1,0,0)" fill-rule="nonzero"></path></g><g clip-path="url(#b4b85c17f-eaaa-4a0b-8272-aebd88ee70158323d619-a97f-405d-951a-021124fef76b)"><path d=" M 4.441647258322058 -1.314295612742363 C 4.432906177384 -1.3105231462322529 4.4415552469437625 -1.3188041702788356 4.430053824656843 -1.3211044547362194 L 4.443027428996488 -1.3246928984897375 L 4.441187201430582 -1.310707168988844 Z" fill="#dce2e3" transform="matrix(1,0,0,1,0,0)" fill-rule="nonzero"></path></g><g clip-path="url(#b4b85c17f-eaaa-4a0b-8272-aebd88ee70158323d619-a97f-405d-951a-021124fef76b)"><path d=" M 4.2964533033719885 -1.3227606595455361 C 4.284767858328478 -1.3150317037687262 4.275934766012124 -1.3301215698091644 4.264433343725205 -1.3234047391936041 C 4.267837764722133 -1.3336180021843882 4.265537480264749 -1.3446593675798306 4.268573855748496 -1.3549646419489099 C 4.278971141495871 -1.3573569377845889 4.288264290703702 -1.3500880388992567 4.298661576451076 -1.3527563688698212 C 4.296314528462728 -1.342942027498104 4.295568826164413 -1.3328129046126582 4.2964533033719885 -1.3227606595455361" fill="#dce2e3" transform="matrix(1,0,0,1,0,0)" fill-rule="nonzero"></path></g><g clip-path="url(#b4b85c17f-eaaa-4a0b-8272-aebd88ee70158323d619-a97f-405d-951a-021124fef76b)"><path d=" M 4.6507891211873975 -1.6007270333758017 L 4.62935047004458 -1.5999909423494385 L 4.627510242478673 -1.6270422875682735 L 4.650605098430807 -1.6256621168938432 Z" fill="#dce2e3" transform="matrix(1,0,0,1,0,0)" fill-rule="nonzero"></path></g><g clip-path="url(#b4b85c17f-eaaa-4a0b-8272-aebd88ee70158323d619-a97f-405d-951a-021124fef76b)"><path d=" M 4.413123731050497 -1.345487469984488 L 4.388648704423933 -1.3487998796031215 L 4.391869102664271 -1.3733669176079815 L 4.415976083777654 -1.3666500869924203 Z" fill="#dce2e3" transform="matrix(1,0,0,1,0,0)" fill-rule="nonzero"></path></g><g clip-path="url(#b4b85c17f-eaaa-4a0b-8272-aebd88ee70158323d619-a97f-405d-951a-021124fef76b)"><path d=" M 4.313107362843447 -1.489945333908195 L 4.294705087184376 -1.485252753615132 L 4.295441178210739 -1.5047591658137467 L 4.313567419734923 -1.5059553137315858 Z" fill="#dce2e3" transform="matrix(1,0,0,1,0,0)" fill-rule="nonzero"></path></g><g clip-path="url(#b4b85c17f-eaaa-4a0b-8272-aebd88ee70158323d619-a97f-405d-951a-021124fef76b)"><path d=" M 4.432998188762294 -1.5088996778370376 C 4.4301458360351385 -1.497674289685004 4.415239992751291 -1.5089916892153328 4.407419025596186 -1.5051272113269274 L 4.4086151735140255 -1.5281300559007658 L 4.432170086357636 -1.5303383289798553 Z" fill="#dce2e3" transform="matrix(1,0,0,1,0,0)" fill-rule="nonzero"></path></g><g clip-path="url(#b4b85c17f-eaaa-4a0b-8272-aebd88ee70158323d619-a97f-405d-951a-021124fef76b)"><path d=" M 4.2286409175683115 -1.368214280423441 L 4.230389133755924 -1.3948055687507983 L 4.253391978329762 -1.3935174094546632 C 4.2639732868337274 -1.3710666331505967 4.246859170470792 -1.3631536546171965 4.2286409175683115 -1.368214280423441" fill="#dce2e3" transform="matrix(1,0,0,1,0,0)" fill-rule="nonzero"></path></g><g clip-path="url(#b4b85c17f-eaaa-4a0b-8272-aebd88ee70158323d619-a97f-405d-951a-021124fef76b)"><path d=" M 4.2760267773904195 -1.5242655780123613 L 4.249435489063062 -1.5260137941999732 L 4.253299966951467 -1.554077264580056 L 4.275750743255533 -1.5492926729086989 Z" fill="#dce2e3" transform="matrix(1,0,0,1,0,0)" fill-rule="nonzero"></path></g><g clip-path="url(#b4b85c17f-eaaa-4a0b-8272-aebd88ee70158323d619-a97f-405d-951a-021124fef76b)"><path d=" M 4.097340680740841 -1.3872606357305788 L 4.070749392413484 -1.3890088519181907 L 4.076086052354615 -1.4151400833540713 L 4.099088896928453 -1.4138519240579361 Z" fill="#dce2e3" transform="matrix(1,0,0,1,0,0)" fill-rule="nonzero"></path></g><g clip-path="url(#b4b85c17f-eaaa-4a0b-8272-aebd88ee70158323d619-a97f-405d-951a-021124fef76b)"><path d=" M 4.120251513936385 -1.5467163543164277 L 4.086667360858581 -1.549292672908698 C 4.090255804612099 -1.5745958019399202 4.09715665798425 -1.5791043594763927 4.121999730123997 -1.573307642643785 Z" fill="#dce2e3" transform="matrix(1,0,0,1,0,0)" fill-rule="nonzero"></path></g><g clip-path="url(#b4b85c17f-eaaa-4a0b-8272-aebd88ee70158323d619-a97f-405d-951a-021124fef76b)"><path d=" M 3.9333764046185204 -1.41615220851532 L 3.9224270506013728 -1.4141279581928217 L 3.916814356525357 -1.4254453577231514 L 3.938713064559651 -1.4296778811247375 Z" fill="#dce2e3" transform="matrix(1,0,0,1,0,0)" fill-rule="nonzero"></path></g><g clip-path="url(#b4b85c17f-eaaa-4a0b-8272-aebd88ee70158323d619-a97f-405d-951a-021124fef76b)"><path d=" M 3.960795795350535 -1.5695351761336758 C 3.9505825323597503 -1.5605180610607308 3.9430375993395317 -1.5699952330251525 3.9338364615099963 -1.5676949485677687 C 3.9299719836215914 -1.5888575655757 3.9377929507766964 -1.599070828566485 3.958495510893151 -1.5929980775989918 Z" fill="#dce2e3" transform="matrix(1,0,0,1,0,0)" fill-rule="nonzero"></path></g><g clip-path="url(#b4b85c17f-eaaa-4a0b-8272-aebd88ee70158323d619-a97f-405d-951a-021124fef76b)"><path d=" M 3.800972031251505 -1.5888575655757 L 3.777877175299371 -1.5901457248718351 C 3.7753008567071014 -1.6009110561323912 3.7791653345955063 -1.6040394429944334 3.7807295280265274 -1.6112163305014704 L 3.798763758172417 -1.6124124784193103 Z" fill="#dce2e3" transform="matrix(1,0,0,1,0,0)" fill-rule="nonzero"></path></g><g clip-path="url(#b4b85c17f-eaaa-4a0b-8272-aebd88ee70158323d619-a97f-405d-951a-021124fef76b)"><path d=" M 5.387248193063414 -1.1910003658265875 L 5.378139066612174 -1.2029618450049835 L 5.394701114705337 -1.1935766844188578 L 5.387800261333186 -1.1944967982018113 Z" fill="#dce2e3" transform="matrix(1,0,0,1,0,0)" fill-rule="nonzero"></path></g><g clip-path="url(#b4b85c17f-eaaa-4a0b-8272-aebd88ee70158323d619-a97f-405d-951a-021124fef76b)"><path d=" M 5.095480112488844 -1.5347548751380318 L 5.096400226271798 -1.5542612873366473 C 5.098332465216001 -1.5700872444034486 5.116182672605299 -1.5661307551367472 5.125751855948016 -1.5610701293305036 L 5.125935878704607 -1.536043034434167 C 5.108913773719967 -1.532546602058943 5.106613489262583 -1.5365030913256437 5.095480112488844 -1.5347548751380318" fill="#dce2e3" transform="matrix(1,0,0,1,0,0)" fill-rule="nonzero"></path></g></g></g><defs><clipPath id="SvgjsClipPath1002"><path d=" M 0.8053575880896542 -6.810519685136273 h 10.411826571867564 v 6.560519685136273 h -10.411826571867564 Z"></path></clipPath><clipPath id="b4b85c17f-eaaa-4a0b-8272-aebd88ee70158323d619-a97f-405d-951a-021124fef76b"><path d=" M 0.7133462097942999 -6.902422650754118 L 11.309192511530712 -6.902422650754118 L 11.309192511530712 -0.15798862170464556 L 0.7133462097942999 -0.15798862170464556 Z"></path></clipPath></defs></svg>